<svg width="136" height="136" viewBox="0 0 136 136" fill="none" xmlns="http://www.w3.org/2000/svg">
<g clip-path="url(#clip0_2460_37246)">
<path d="M64.2823 0.743004C48.99 1.98292 35.475 9.14687 25.9276 21.05C19.425 29.1508 15.4572 38.9324 14.3138 49.637C14.0933 51.6759 14.0933 58.0684 14.3138 60.1073C15.5399 71.5283 19.9623 81.8472 27.3053 90.3475C29.0274 92.3313 32.4578 95.624 34.5657 97.3048C35.5714 98.1038 36.4531 98.7513 36.522 98.7513C36.5909 98.7513 37.6104 97.1119 38.7814 95.1005L40.903 91.4496L40.5173 91.1052C40.3106 90.9123 39.4427 90.1822 38.6023 89.4658C25.1148 78.0448 19.5214 59.3772 24.4673 42.2113C26.0654 36.673 29.0412 30.9143 32.7196 26.2852C34.0973 24.5494 37.9686 20.6918 39.6907 19.3004C49.7064 11.3236 62.1469 7.89317 74.7389 9.62906C81.71 10.5934 88.9979 13.5003 94.7291 17.5921C98.931 20.5954 103.119 24.8662 105.999 29.0406C110.269 35.2677 112.914 42.3766 113.741 49.9125C113.975 52.0755 114.017 57.0764 113.81 59.1567C112.887 68.3872 109.319 76.9426 103.436 84.0239C101.576 86.2833 97.8013 89.9066 96.0654 91.1328L95.7486 91.3394L97.8426 94.9765C98.9999 96.9741 99.978 98.6549 100.033 98.7238C100.226 98.9442 103.629 96.1613 106.081 93.7917C122.228 78.1688 127.063 54.1833 118.219 33.5319C116.786 30.1565 115.711 28.1727 113.59 24.9627C103.505 9.62906 86.3114 0.45369 67.9883 0.60524C66.707 0.619011 65.04 0.674118 64.2823 0.743004Z" fill="white"/>
<path d="M66.2136 22.4412C62.8107 22.7719 60.6478 23.2127 57.9889 24.0944C52.4781 25.9405 47.1878 29.5363 43.5094 33.9586C39.4177 38.8907 36.9103 44.677 36.0975 51.0832C35.8357 53.1498 35.9046 57.269 36.2352 59.4871C37.0619 65.0254 39.0319 69.7784 42.3522 74.2421C43.4405 75.73 47.1878 79.6701 47.4909 79.6701C47.5874 79.6701 48.6206 77.9894 49.8054 75.9366L51.9684 72.2169L50.7974 70.977C47.9318 67.9323 45.7688 63.6753 44.8871 59.3631C44.6253 58.0405 44.584 57.4206 44.584 54.7341C44.5978 52.0476 44.6391 51.4414 44.9009 50.1877C46.9812 40.5853 54.0349 33.5316 63.6649 31.4237C64.9462 31.1482 65.4834 31.1068 68.349 31.1206C71.1871 31.1206 71.7657 31.1482 73.0331 31.4237C81.561 33.2698 88.2703 39.2076 90.943 47.2808C91.9212 50.2015 92.2656 52.64 92.1416 55.7674C91.935 61.6225 89.6756 66.9955 85.6527 71.225L84.7159 72.2307L86.686 75.6335C87.7606 77.521 88.7525 79.2293 88.8903 79.4497L89.1383 79.8492L91.1772 77.7965C94.1255 74.8345 95.82 72.4786 97.5008 68.9931C98.9474 66.0311 99.8704 63.0966 100.408 59.8177C100.752 57.7788 100.752 51.8272 100.408 49.7882C99.8428 46.3853 98.9474 43.5886 97.4044 40.4475C92.6651 30.8175 83.5724 24.2598 72.8265 22.703C71.4488 22.4963 67.2607 22.331 66.2136 22.4412Z" fill="white"/>
<path d="M66.0734 45.1455C62.519 45.9859 59.8187 48.08 58.2895 51.1935C57.4767 52.8605 57.1598 54.2106 57.1598 56.1119C57.146 59.253 58.262 61.9119 60.5076 64.13L61.4582 65.0668L53.2747 99.9497C48.7697 119.141 45.05 135.012 44.9949 135.218L44.8984 135.604H68.3328C81.2279 135.604 91.7672 135.577 91.7672 135.549C91.7672 135.508 88.0475 119.637 83.5011 100.267L75.235 65.053L76.1718 64.13C77.7011 62.6145 78.7068 60.8649 79.2303 58.8121C79.5609 57.5033 79.6023 55.1337 79.3129 53.756C78.8583 51.6068 77.6873 49.5954 75.9514 47.956C74.7253 46.7987 73.4578 46.0548 71.7908 45.4899C70.6473 45.1042 70.2616 45.0491 68.691 45.0077C67.4649 44.9664 66.6383 45.0215 66.0734 45.1455ZM69.8069 82.9491L71.1846 88.8318L68.3741 88.8731C66.8174 88.8869 65.5361 88.8869 65.5086 88.8731C65.4397 88.7905 68.2639 76.9286 68.3466 76.9975C68.3879 77.0388 69.0354 79.7116 69.8069 82.9491ZM67.8231 95.3345C66.9138 96.3126 65.3846 97.8694 64.4478 98.8062L62.7394 100.501L63.4696 97.3597C63.8829 95.6238 64.2411 94.067 64.2824 93.8879C64.3513 93.5848 64.3789 93.5848 66.9138 93.5848H69.4763L67.8231 95.3345ZM74.064 101.066C74.6426 103.559 75.0972 105.612 75.0559 105.653C75.0284 105.681 72.5347 105.695 69.5176 105.681L64.0344 105.64L68.4981 101.066C70.9504 98.5582 72.9756 96.5055 72.9894 96.5193C73.0032 96.5331 73.4853 98.5858 74.064 101.066ZM72.0388 111.054C71.7219 111.426 68.2502 114.98 64.3513 118.976C58.0553 125.423 56.7878 126.622 56.7741 126.126C56.7741 126.071 57.5869 122.516 58.5926 118.204L60.4111 110.393H66.5281H72.645L72.0388 111.054ZM78.3899 119.54C79.2441 123.164 79.9053 126.153 79.8778 126.181C79.8502 126.208 76.1856 126.222 71.7219 126.208L63.6211 126.167L70.1514 119.458C73.7471 115.765 76.7229 112.79 76.7642 112.845C76.8193 112.9 77.5495 115.903 78.3899 119.54Z" fill="white"/>
</g>
<defs>
<clipPath id="clip0_2460_37246">
<rect width="135.013" height="135.013" fill="white" transform="translate(0.644531 0.591064)"/>
</clipPath>
</defs>
</svg>
