<svg width="136" height="136" viewBox="0 0 136 136" fill="none" xmlns="http://www.w3.org/2000/svg">
<path d="M19.4648 107.336V115.583H61.9727V107.336H19.4648Z" fill="white"/>
<path fill-rule="evenodd" clip-rule="evenodd" d="M19.4672 27.932H26.7682C26.7682 29.0081 26.6998 30.1776 26.6293 31.383V31.383V31.383V31.383C26.456 34.3453 26.2702 37.5236 27.056 40.0608C27.3098 40.8804 27.7831 41.3547 28.287 41.8597C28.5398 42.113 28.8003 42.374 29.0446 42.6902C29.4371 43.1983 29.6883 43.8621 29.9291 44.4984C30.0252 44.7525 30.1197 45.0022 30.2209 45.2358L32.1548 49.7639C32.2056 49.8891 32.2564 50.035 32.3106 50.1902L32.3106 50.1903C32.5041 50.7453 32.7394 51.4205 33.1635 51.7C33.7185 52.0658 34.7997 51.9814 35.6799 51.9127H35.68C35.9897 51.8885 36.2745 51.8663 36.5028 51.8663C36.5028 52.4161 36.5417 53.0193 36.5819 53.6408C36.6713 55.0244 36.7665 56.4993 36.4512 57.6812C36.3465 58.0735 36.0547 58.2613 35.7635 58.4488C35.5178 58.6069 35.2726 58.7648 35.1404 59.0449C34.8056 59.7551 34.8993 60.9242 34.9801 61.9325C35.0124 62.3355 35.0426 62.7128 35.0426 63.0248C35.5715 62.873 36.0271 62.6535 36.5028 62.3779C36.5028 62.55 36.515 62.745 36.5278 62.9506C36.5671 63.5775 36.6124 64.3019 36.336 64.7693C36.1983 65.0022 35.9707 65.1456 35.7452 65.2877C35.4678 65.4625 35.1936 65.6352 35.0942 65.9702C34.8634 66.748 34.9291 67.7443 34.9902 68.6706C35.0168 69.074 35.0426 69.464 35.0426 69.817L36.5028 69.1701C36.5028 69.3362 36.5155 69.5285 36.5291 69.7328L36.5291 69.7328C36.5705 70.3556 36.6192 71.0895 36.336 71.5328C36.1979 71.7489 35.9821 71.8797 35.7669 72.0102C35.5157 72.1625 35.2654 72.3143 35.1404 72.6006C34.8281 73.3164 34.9118 74.416 34.9853 75.3822C35.0147 75.7699 35.0426 76.1361 35.0426 76.4474C35.5715 76.2956 36.0271 76.0761 36.5028 75.8005C36.5028 75.9726 36.515 76.1676 36.5278 76.3732C36.5671 77.0001 36.6124 77.7245 36.336 78.1919C36.1983 78.4248 35.9707 78.5682 35.7452 78.7103C35.4678 78.8851 35.1936 79.0578 35.0942 79.3928C34.8634 80.1706 34.9291 81.1671 34.9902 82.0934C35.0169 82.4967 35.0426 82.8867 35.0426 83.2396C35.5715 83.0877 36.0271 82.8683 36.5028 82.5927C36.5028 82.7537 36.4926 82.9324 36.4819 83.1191C36.4483 83.7057 36.4102 84.3727 36.6696 84.827C37.8505 86.8957 40.7498 86.9212 42.0145 84.9347C42.4504 84.2502 42.3467 83.1596 42.2482 82.1221C42.1857 81.4648 42.1253 80.8289 42.2053 80.3311C42.2877 79.8191 42.6359 79.5989 42.9868 79.377C43.2715 79.1971 43.558 79.016 43.7059 78.677C44.0182 77.9613 43.9346 76.8617 43.8611 75.8954C43.8316 75.5078 43.8037 75.1416 43.8037 74.8302C43.398 74.9467 43.0184 75.1134 42.636 75.2813L42.6359 75.2813L42.6358 75.2814L42.6358 75.2814L42.6357 75.2814L42.6356 75.2814L42.6356 75.2815L42.6355 75.2815L42.6354 75.2815L42.6354 75.2815L42.6353 75.2815L42.6352 75.2816C42.4849 75.3475 42.3342 75.4137 42.1813 75.4771C42.1813 75.311 42.1685 75.1187 42.155 74.9145C42.1136 74.2916 42.0648 73.5573 42.3481 73.1144C42.5019 72.874 42.7551 72.7404 43.007 72.6074C43.2879 72.4592 43.5673 72.3117 43.7059 72.018C44.0408 71.308 43.9471 70.1386 43.8663 69.1302C43.834 68.7273 43.8037 68.35 43.8037 68.0381L42.1813 68.6849C42.1813 68.5308 42.1712 68.3573 42.1606 68.1743C42.1232 67.5316 42.0789 66.7715 42.4414 66.3222C42.5936 66.1336 42.8053 66.0102 43.0158 65.8875C43.2942 65.7251 43.5708 65.5639 43.7059 65.2544C44.0296 64.5125 43.9416 63.3654 43.8643 62.3587L43.8643 62.3585C43.8331 61.953 43.8037 61.5702 43.8037 61.2459C43.2419 61.4791 42.707 61.7487 42.1813 62.0545C42.1813 61.8825 42.1691 61.6876 42.1563 61.4821C42.117 60.8551 42.0717 60.1303 42.3481 59.6632C42.5006 59.4054 42.755 59.2552 43.008 59.1058C43.2898 58.9394 43.5699 58.774 43.7059 58.4623C44.0182 57.7466 43.9346 56.6469 43.8611 55.6807C43.8316 55.293 43.8037 54.9268 43.8037 54.6155C43.3978 54.732 43.0179 54.8988 42.6353 55.0668C42.485 55.1328 42.3342 55.199 42.1813 55.2623V51.8663C42.44 51.8663 42.7512 51.8906 43.0834 51.9166L43.0835 51.9166C43.9332 51.983 44.9207 52.0602 45.5206 51.7687C45.9524 51.5588 46.1869 50.8933 46.3761 50.3566L46.3762 50.3564L46.3763 50.3562C46.4327 50.196 46.4851 50.0473 46.5376 49.9256L48.6711 44.9124C49.0375 44.0536 49.6179 43.3508 50.1896 42.6584C50.8173 41.8981 51.4347 41.1505 51.7472 40.2226C52.6028 37.6817 52.4049 34.4053 52.222 31.3789C52.1489 30.169 52.0782 28.999 52.0782 27.932H78.1994V44.2655H81.4443V63.6717C80.1442 63.6752 79.0024 63.9691 78.4611 65.289C78.1047 66.1584 78.1427 67.1934 78.1785 68.1679V68.1679V68.1682V68.1684V68.1687V68.1689V68.1691V68.1694V68.1696V68.1699V68.1701V68.1704C78.1891 68.4569 78.1994 68.7381 78.1994 69.0084V76.2857V118.171H9.57031V128.682H126.386V118.171H121.843V95.3684V88.5763C121.843 88.2945 121.858 87.9946 121.873 87.687C121.914 86.8362 121.958 85.9268 121.704 85.1802C120.98 83.0477 118.165 83.2166 116.003 83.3463C115.529 83.3747 115.087 83.4013 114.704 83.4013C114.565 83.4013 114.398 83.4124 114.216 83.4244L114.216 83.4244C113.573 83.4669 112.749 83.5214 112.368 83.142C111.89 82.6649 111.99 81.3854 112.065 80.4364C112.088 80.1417 112.108 79.8788 112.108 79.6818C113.694 80.2576 116.246 80.4105 117.324 78.8667C118.164 77.6638 117.946 76.0223 117.73 74.394C117.513 72.7554 117.297 71.1302 118.163 69.9787C118.86 69.0509 120.268 67.3771 121.356 66.9381C121.736 66.7849 122.13 66.7958 122.528 66.8069C123.003 66.8201 123.484 66.8335 123.952 66.5682C125.771 65.5378 128.944 62.4664 129.881 60.599C131.191 57.9863 128.19 55.0507 125.575 55.6495C124.817 55.8231 124.247 56.4054 123.713 56.9517C123.63 57.0369 123.548 57.1212 123.465 57.203C123.092 57.5745 122.646 57.9651 122.18 58.3736L122.179 58.3742L122.179 58.3742C120.92 59.4782 119.511 60.7126 118.978 62.0545C118.816 62.464 118.845 62.9233 118.873 63.3742C118.905 63.8908 118.936 64.3965 118.679 64.8037C118.149 65.6422 116.778 67.1452 115.84 67.5023C115.264 67.7216 114.53 67.7324 113.795 67.7432H113.795H113.795C113.206 67.7518 112.617 67.7605 112.108 67.8764C112.108 65.5918 111.747 63.6794 109.026 63.6717V44.2655H112.108V25.3445V19.8461C112.108 19.6326 112.122 19.3984 112.136 19.1558C112.174 18.5085 112.215 17.8006 112.011 17.261C111.558 16.067 109.81 14.8687 108.39 13.895C107.888 13.5509 107.427 13.2348 107.079 12.9569L97.182 4.96787C96.7516 4.62336 96.3081 4.21647 95.8521 3.79812L95.852 3.79805C94.8401 2.86964 93.7666 1.88482 92.6391 1.40021C91.4424 0.885989 89.5828 1.02736 87.953 1.15127C87.2947 1.20132 86.6739 1.24852 86.1494 1.24852H71.0607H49.32C48.3712 1.24852 47.32 1.17803 46.2336 1.10519C43.8395 0.94467 41.2749 0.772722 39.2609 1.3187C38.1295 1.62531 36.9597 2.72279 35.9192 3.69891L35.9192 3.69893C35.4933 4.09845 35.0891 4.47765 34.7181 4.77397L24.1723 13.2842C23.8236 13.5691 23.3564 13.8884 22.8511 14.2338C21.5504 15.1229 19.9976 16.1843 19.565 17.273C19.3116 17.911 19.3717 18.8052 19.4257 19.609C19.4469 19.9246 19.4672 20.2262 19.4672 20.493V27.932ZM86.6334 20.817V24.2131H97.017V20.817H86.6334ZM86.6334 31.0053V27.6092H97.017V31.0053H86.6334ZM86.6334 34.563V37.7974H97.017V34.563H86.6334ZM29.6334 33.852C29.5659 31.8618 29.4967 29.8228 29.8489 27.9319H48.9936C49.352 29.8559 49.2806 31.9329 49.211 33.9596C49.1833 34.7657 49.1559 35.5638 49.1559 36.3412C49.1559 36.5152 49.1666 36.717 49.1782 36.9335C49.2216 37.7496 49.2762 38.7754 48.8087 39.3163C48.3733 39.8201 46.9015 39.7034 45.8725 39.6218L45.8724 39.6218C45.5604 39.5971 45.2891 39.5756 45.0998 39.5756H34.0672C33.8706 39.5756 33.5789 39.5987 33.2397 39.6257H33.2396H33.2396H33.2396C32.1184 39.7147 30.4784 39.845 30.0377 39.3163C29.5641 38.748 29.6202 37.6549 29.6642 36.7962L29.6642 36.7961C29.6759 36.5696 29.6866 36.3594 29.6866 36.1795C29.6866 35.4195 29.6602 34.6397 29.6334 33.8522L29.6334 33.852ZM32.4452 42.6481C32.7407 43.7253 33.2163 44.7672 33.6869 45.7983L33.6869 45.7985C33.8724 46.205 34.0572 46.6098 34.2299 47.0145C34.2769 47.1247 34.323 47.2502 34.3714 47.382C34.541 47.8436 34.7395 48.3837 35.1089 48.6271C35.8784 49.1343 37.5942 48.9888 38.9492 48.8738H38.9493L38.9494 48.8738C39.4477 48.8315 39.8972 48.7934 40.2329 48.7934C40.4572 48.7934 40.7483 48.8169 41.0693 48.8428C41.9905 48.9171 43.1575 49.0112 43.6969 48.6271C44.0651 48.3651 44.2733 47.7815 44.4501 47.2858C44.5064 47.1282 44.5594 46.9794 44.6135 46.8528L46.3981 42.6481H32.4452ZM40.4621 57.4254L40.4622 57.4254C41.1674 57.1309 41.8334 56.8527 42.3435 56.556C42.5379 57.018 42.6112 57.6568 42.2457 58.0701C41.1275 59.3344 37.7927 60.6204 36.1782 61.0841C36.1797 59.2139 38.4762 58.2548 40.4621 57.4254ZM36.1782 67.8766C36.448 67.7647 36.759 67.6444 37.0955 67.5144C39.2693 66.6742 42.5042 65.4239 42.5057 63.3485C40.46 63.9359 36.18 65.5734 36.1782 67.8766ZM40.1337 71.0824C40.9783 70.7207 41.7835 70.3759 42.3435 69.9785C42.5379 70.4406 42.6112 71.0793 42.2457 71.4927C41.1275 72.757 37.7927 74.043 36.1782 74.5066C36.1844 72.7734 38.2563 71.8862 40.1337 71.0824ZM40.4622 77.6405L40.4621 77.6405C38.4762 78.4699 36.1797 79.429 36.1782 81.2992C37.868 80.814 41.0188 79.4958 42.2457 78.232C42.6213 77.845 42.5304 77.2151 42.3435 76.7711C41.8334 77.0678 41.1675 77.3459 40.4623 77.6404L40.4622 77.6405L40.4622 77.6405ZM83.5545 116.069V110.408H89.233V116.069H83.5545ZM92.8022 110.409V116.069H98.4808V110.409H92.8022ZM102.05 110.409V116.069H107.729V110.409H102.05ZM111.46 116.069V110.409H117.138V116.069H111.46Z" fill="white"/>
<path d="M3.56641 131.27V135.96H132.226V131.27H3.56641Z" fill="white"/>
</svg>
