<svg width="136" height="136" viewBox="0 0 136 136" fill="none" xmlns="http://www.w3.org/2000/svg">
<g clip-path="url(#clip0_2460_37250)">
<path d="M36.2078 17.4802C32.2369 18.2318 30.0812 19.0969 27.415 20.9973C26.2804 21.8057 23.756 24.401 23.0044 25.5497C21.2742 28.1592 20.1396 31.2793 19.8701 34.1299C19.7 36.0444 19.856 38.8808 20.1963 40.1572C20.3523 40.6961 20.5083 41.3343 20.5651 41.5754C20.7211 42.3554 21.9691 45.0075 22.7916 46.3122C23.2455 47.0213 24.1957 48.2268 24.9331 48.9785C27.415 51.5879 30.1521 53.2189 33.8394 54.2683C36.1227 54.9065 40.3773 54.9633 42.5897 54.3818C43.1712 54.2258 43.9087 54.0414 44.2207 53.9705C45.3411 53.7011 48.4469 52.0559 49.7517 51.049C54.4176 47.4326 56.9561 42.4547 57.1547 36.5408C57.2114 34.7255 57.183 34.2717 56.8569 32.7117C56.0343 28.6272 54.5026 25.7341 51.6662 22.8977C49.0284 20.274 46.1069 18.6573 42.4479 17.8064C41.4268 17.5653 40.5617 17.4802 38.8315 17.4518C37.5835 17.4376 36.4064 17.4518 36.2078 17.4802Z" fill="white"/>
<path d="M69.5798 37.1082C68.9557 37.25 68.1899 37.8598 67.7219 38.5689L67.339 39.1504L67.2965 50.7655L67.2539 62.3806L67.651 62.9053C68.8848 64.522 69.6649 66.0112 71.1681 69.7269C71.5085 70.5494 71.934 71.5138 72.1325 71.8683C72.3169 72.2371 72.5438 72.7334 72.6289 72.9745C72.714 73.2156 72.8558 73.4142 72.9267 73.4142C73.0402 73.4142 73.0827 68.7199 73.0827 58.0976V42.781H101.589H130.094V59.7285V76.676H111.091C98.0856 76.676 92.0866 76.7186 92.0866 76.8179C92.0866 76.903 92.3845 77.1015 92.7532 77.2575C95.0081 78.2219 97.4049 80.5194 98.6671 82.9161C99.674 84.8165 99.9151 85.8518 99.986 88.4755C100.057 90.7304 100.043 90.9006 99.6598 92.2337C98.9933 94.6021 97.7878 96.7436 96.2845 98.2327C95.8449 98.6582 95.4903 99.0553 95.4903 99.112C95.4903 99.1687 99.5889 99.2255 104.581 99.2255H113.672L114.225 98.6724L114.778 98.1193V96.1763C114.778 93.9639 114.594 93.425 113.757 93.1414C113.501 93.0421 112.168 92.9854 110.509 92.9854H107.687V90.3617V87.738H120.422H133.144L133.853 87.3977C134.704 87.0006 135.087 86.6035 135.469 85.7525C135.753 85.1143 135.767 84.9583 135.767 62.2104V39.3064L135.37 38.5973C135.157 38.2002 134.732 37.718 134.377 37.4627L133.753 37.0373L101.901 37.0089C84.3716 37.0089 69.8209 37.0373 69.5798 37.1082Z" fill="white"/>
<path d="M103.046 48.4253C102.848 48.5529 102.309 49.7158 102.138 50.3682C102.082 50.5951 101.614 51.9991 101.089 53.4883C100.578 54.9632 100.096 56.3672 100.025 56.6083C99.9686 56.8352 99.3304 58.7214 98.6213 60.792C96.2387 67.6986 95.6289 69.5565 95.6289 69.911C95.6289 70.0954 95.7565 70.4216 95.9267 70.6343C96.2104 71.0031 96.2387 71.0031 98.0966 71.0031C99.8693 71.0031 99.997 70.9889 100.266 70.6769C100.422 70.5067 100.593 70.2372 100.635 70.0812C100.678 69.9252 101.302 68.1099 102.011 66.0393C102.72 63.9688 103.358 62.0826 103.429 61.8556C103.5 61.6146 103.968 60.2105 104.493 58.7356C105.003 57.2465 105.485 55.8425 105.556 55.6156C105.613 55.3745 106.095 53.9704 106.606 52.4955C107.116 51.0064 107.542 49.6166 107.542 49.4038C107.542 49.1769 107.4 48.8649 107.187 48.6664C106.861 48.326 106.776 48.3118 105.032 48.3118C104.039 48.3118 103.145 48.3685 103.046 48.4253Z" fill="white"/>
<path d="M111.189 50.9922C109.97 52.226 109.672 52.6089 109.672 52.9351C109.672 53.2755 110.168 53.8427 112.82 56.4948L115.983 59.6574L112.82 62.82C108.892 66.7626 109.005 66.3938 111.118 68.5353C112.324 69.7692 112.636 70.0103 112.99 70.0103C113.373 70.0103 114.026 69.4146 118.365 65.0749C122.96 60.4799 123.301 60.097 123.258 59.6857C123.23 59.3312 122.365 58.381 118.422 54.3533C114.083 49.9143 113.572 49.4463 113.161 49.4463C112.764 49.4463 112.494 49.659 111.189 50.9922Z" fill="white"/>
<path d="M84.8079 54.5237C80.5533 58.7925 79.8867 59.5158 79.8867 59.8703C79.8867 60.2391 80.5533 60.9623 84.8362 65.2453C88.9632 69.3723 89.8425 70.1807 90.1687 70.1807C90.7643 70.1807 93.6433 67.2592 93.6433 66.6635C93.6433 66.3232 93.1469 65.7559 90.4949 63.1038L87.3323 59.9412L90.424 56.8496C94.3949 52.8786 94.2815 53.2473 92.1116 51.1058C90.8636 49.872 90.4807 49.5884 90.1545 49.5884C89.8 49.5884 89.0341 50.2975 84.8079 54.5237Z" fill="white"/>
<path d="M24.1531 60.7779C20.7778 61.5153 18.6505 62.7066 16.2537 65.2452C14.8923 66.6776 13.8712 68.1809 12.6231 70.5918C12.1268 71.5562 11.5028 72.7333 11.2475 73.2013C9.64492 76.137 7.27653 81.0865 6.17033 83.8378C5.12086 86.4331 4.05721 90.9005 1.80226 102.133C1.60372 103.14 1.32007 104.572 1.16407 105.295C0.837886 106.884 0.823704 107.961 1.10734 109.082C1.7739 111.677 3.54665 113.606 5.98596 114.343C8.65218 115.18 11.4035 114.414 13.3748 112.315C14.6795 110.926 14.9632 110.188 15.8708 105.678C16.9061 100.53 18.069 95.1409 18.7923 92.1343C19.3171 89.9928 19.8134 88.6739 21.2033 85.8233L21.7706 84.6888L21.6855 85.6815C21.6429 86.2204 21.5436 89.1561 21.4586 92.2052C21.3735 95.2402 21.1749 101.494 21.0047 106.104C20.8487 110.699 20.7495 114.911 20.7778 115.464C20.8913 117.166 21.8698 118.598 23.444 119.35L24.224 119.718L38.321 119.761C53.7794 119.803 53.0277 119.832 54.2899 118.967C55.1125 118.399 55.8641 117.322 56.1336 116.329C56.3605 115.52 56.3605 115.038 56.1478 108.16C56.0201 104.146 55.8216 97.7929 55.7081 94.0489C55.5805 90.3048 55.4529 86.4473 55.4103 85.4688C55.3252 83.7386 55.3394 83.7102 55.5663 84.1215C56.0627 84.9866 56.1478 85.1284 56.6867 85.9651C58.9984 89.5532 62.0901 92.4889 64.9974 93.8645C68.4294 95.4955 71.8473 96.2613 77.2081 96.63C80.2714 96.8428 81.1365 96.8428 84.0864 96.6867C88.0857 96.474 88.6104 96.4031 90.057 95.8075C91.5745 95.1693 92.9785 93.7936 93.7443 92.191L94.2833 91.0707V89.227C94.2691 87.4542 94.2549 87.3408 93.7869 86.2488C93.3898 85.2986 93.1203 84.9298 92.1701 83.9797C91.1632 82.9727 90.8796 82.7742 89.8159 82.3629C88.7664 81.9374 88.4403 81.8807 87.3341 81.8665C86.6391 81.8665 85.3911 81.9374 84.5827 82.0367C81.0514 82.448 75.6764 82.1218 72.9535 81.3418C71.2516 80.8596 70.5284 80.4058 69.72 79.3421C68.3869 77.5836 67.621 76.0944 64.6854 69.3722C64.4443 68.8191 64.2032 68.3085 64.1465 68.2376C64.0755 68.1525 63.8912 67.8405 63.721 67.5285C63.1821 66.5641 61.9199 64.9757 61.069 64.2099C59.3529 62.6499 57.4383 61.6288 55.0132 60.9764L53.5808 60.5793L39.4697 60.5509C26.2663 60.5226 25.2877 60.5368 24.1531 60.7779Z" fill="white"/>
</g>
<defs>
<clipPath id="clip0_2460_37250">
<rect width="135.013" height="135.013" fill="white" transform="translate(0.90625 0.648682)"/>
</clipPath>
</defs>
</svg>
