<svg width="136" height="136" viewBox="0 0 136 136" fill="none" xmlns="http://www.w3.org/2000/svg">
<g clip-path="url(#clip0_2460_37238)">
<path d="M88.4818 12.8044L95.8962 5.38781L91.9187 1.4104L77.7148 15.6172L91.9187 29.8211L95.8962 25.8434L88.4827 18.4299H118.258V54.9959H123.884V12.8044H88.4818Z" fill="white"/>
<path d="M43.34 106.365L39.3626 110.343L46.7769 117.759H17.0005V81.1929H11.375V123.384H46.7761L39.3626 130.798L43.34 134.776L57.5439 120.572L43.34 106.365Z" fill="white"/>
<path d="M67.6316 28.7235V0.595703H0.125V28.7235H17.0016V31.5363H0.125V59.6641H17.0016V65.2804H11.3762V70.9059H56.3807V65.2804H50.7552V59.6641H67.6319V31.5363H50.7552V28.7235H67.6316ZM50.7549 11.8375H56.3804V17.4629H50.7549V11.8375ZM11.3762 17.4632V11.8375H28.2528V17.4629L11.3762 17.4632ZM11.3762 48.4035V42.778H28.2528V48.4035H11.3762ZM45.1292 65.2801H22.6271V59.6638H45.1292V65.2801ZM45.1292 48.4035H39.5037V42.778H45.1292V48.4035ZM45.1292 31.5363H22.6271V28.7235H45.1292V31.5363ZM45.1292 17.4632H39.5037V11.8375H45.1292V17.4632ZM56.3804 42.778V48.4035H50.7549V42.778H56.3804Z" fill="white"/>
<path d="M135.135 93.4175V65.2897H67.6289V93.4175H84.5056V96.2302H67.6289V124.358H84.5056V129.974H78.8801V135.6H123.884V129.974H118.259V124.358H135.135V96.2302H118.259V93.4175H135.135ZM118.259 76.5317H123.884V82.1572H118.259V76.5317ZM78.8798 82.1572V76.5317H95.7565V82.1572H78.8798ZM78.8798 113.098V107.472H95.7565V113.098H78.8798ZM112.633 129.974H90.131V124.358H112.633V129.974ZM112.633 113.098H107.008V107.472H112.633V113.098ZM112.633 96.2305H90.131V93.4178H112.633V96.2305ZM112.633 82.1572H107.008V76.5317H112.633V82.1572ZM123.884 107.472V113.098H118.259V107.472H123.884Z" fill="white"/>
</g>
<defs>
<clipPath id="clip0_2460_37238">
<rect width="135.013" height="135.013" fill="white" transform="translate(0.125 0.591064)"/>
</clipPath>
</defs>
</svg>
