<svg width="170" height="80" viewBox="0 0 170 80" fill="none" xmlns="http://www.w3.org/2000/svg">
<g clip-path="url(#clip0_2460_41258)">
<path d="M95.6208 35.5963C95.7342 35.7061 95.8272 35.8162 95.8999 35.9267C96.1742 36.3436 96.3835 36.7077 96.5279 37.019C96.6934 37.3763 96.7254 37.7635 96.6237 38.1808C96.5365 38.5387 96.3569 38.8365 96.0847 39.074C95.995 39.1527 95.7102 39.331 95.2301 39.6088C87.1369 44.2903 79.043 48.9688 70.9484 53.6442C70.9442 53.6466 70.9394 53.6479 70.9346 53.6479C70.9298 53.6479 70.925 53.6466 70.9208 53.6442L61.6022 48.2635C61.5806 48.2509 61.5627 48.2329 61.5503 48.2112C61.5378 48.1896 61.5313 48.1651 61.5313 48.1401V20.9986C61.5312 20.9867 61.5344 20.9749 61.5403 20.9646C61.5463 20.9543 61.5548 20.9457 61.5651 20.9398L85.1172 7.33169C85.1245 7.32766 85.1326 7.32559 85.1409 7.32569C85.1492 7.32578 85.1572 7.32803 85.1643 7.33222L89.6375 9.91617C89.6441 9.91998 89.6496 9.92547 89.6534 9.93206C89.6572 9.93866 89.6592 9.94615 89.6592 9.95377C89.6592 9.96139 89.6572 9.96887 89.6534 9.97547C89.6496 9.98207 89.6441 9.98755 89.6375 9.99136C83.0559 13.7967 76.4753 17.5992 69.8957 21.3989C69.4968 21.6294 69.1956 21.8133 68.9919 21.9506C67.2745 23.1091 65.9624 24.624 65.0556 26.4953C64.4809 27.6814 64.1307 28.947 64.0051 30.2923C63.7806 32.6952 64.2508 34.9436 65.4156 37.0376C65.6169 37.3994 65.823 37.7584 66.0341 38.1146C67.3307 40.2975 69.1357 41.8805 71.4493 42.8636C72.5012 43.3105 73.6257 43.5854 74.8227 43.6881C77.0374 43.878 79.1175 43.4789 81.0628 42.4909C81.2531 42.3945 81.5616 42.2229 81.9884 41.9762C85.6529 39.8568 89.32 37.742 92.9898 35.6318C93.4208 35.384 93.6631 35.2493 93.7168 35.2278C93.9794 35.1226 94.26 35.0828 94.5587 35.1086C94.9682 35.1439 95.3222 35.3065 95.6208 35.5963Z" fill="#B41006"/>
<path d="M95.1385 16.5403C95.543 16.5403 95.8708 16.2124 95.8708 15.808C95.8708 15.4035 95.543 15.0757 95.1385 15.0757C94.7341 15.0757 94.4062 15.4035 94.4062 15.808C94.4062 16.2124 94.7341 16.5403 95.1385 16.5403Z" fill="#B31106"/>
<path d="M74.6826 33.6171C74.5644 33.5112 74.4726 33.4088 74.4073 33.31C74.1796 32.9647 73.9747 32.6066 73.7926 32.2356C73.5391 31.7181 73.528 31.2024 73.7592 30.6884C73.8753 30.43 74.0414 30.2124 74.2575 30.0356C74.333 29.9741 74.561 29.8335 74.9416 29.6135C83.0627 24.9229 91.1855 20.231 99.3101 15.5379C99.3193 15.5326 99.3298 15.5298 99.3405 15.5298C99.3512 15.5298 99.3617 15.5326 99.371 15.5379L108.718 20.9393C108.727 20.9441 108.734 20.9511 108.738 20.9594C108.743 20.9678 108.746 20.9773 108.746 20.987V48.1947C108.746 48.2045 108.743 48.2142 108.738 48.2227C108.733 48.2313 108.726 48.2384 108.718 48.2434L85.1784 61.8367C85.1671 61.8433 85.1543 61.8467 85.1412 61.8467C85.1281 61.8467 85.1151 61.8433 85.1037 61.8367L80.6024 59.2411C80.5784 59.2273 80.5784 59.2135 80.6024 59.1998C87.1075 55.4407 93.617 51.6818 100.131 47.923C100.133 47.922 100.266 47.8464 100.532 47.6964C101.876 46.9382 103.011 45.9583 103.937 44.7566C105.409 42.8473 106.204 40.686 106.322 38.2729C106.339 37.9171 106.339 37.5643 106.323 37.2145C106.249 35.65 105.877 34.1817 105.208 32.8096C104.988 32.3574 104.701 31.8355 104.35 31.2439C104.135 30.8824 103.947 30.5845 103.784 30.3501C102.346 28.2766 100.425 26.8328 98.0203 26.0188C96.7262 25.5807 95.3684 25.3922 93.9468 25.4533C92.2419 25.5263 90.6345 25.9554 89.1247 26.7405C88.8617 26.8771 88.4965 27.0804 88.0292 27.3505C84.2708 29.5246 80.5098 31.6943 76.7461 33.8596C76.4496 34.0304 76.1289 34.1051 75.784 34.0836C75.3685 34.0581 75.0014 33.9026 74.6826 33.6171Z" fill="#0055A4"/>
<path d="M93.3182 17.5891C93.7227 17.5891 94.0505 17.2612 94.0505 16.8568C94.0505 16.4524 93.7227 16.1245 93.3182 16.1245C92.9138 16.1245 92.5859 16.4524 92.5859 16.8568C92.5859 17.2612 92.9138 17.5891 93.3182 17.5891Z" fill="#B31106"/>
<path d="M91.4995 18.6406C91.9048 18.6406 92.2334 18.312 92.2334 17.9067C92.2334 17.5014 91.9048 17.1729 91.4995 17.1729C91.0942 17.1729 90.7656 17.5014 90.7656 17.9067C90.7656 18.312 91.0942 18.6406 91.4995 18.6406Z" fill="#B31106"/>
<path d="M89.6836 19.6929C90.0892 19.6929 90.418 19.3641 90.418 18.9585C90.418 18.5529 90.0892 18.2241 89.6836 18.2241C89.278 18.2241 88.9492 18.5529 88.9492 18.9585C88.9492 19.3641 89.278 19.6929 89.6836 19.6929Z" fill="#B41006"/>
<path d="M86.0487 21.7903C86.4531 21.7903 86.781 21.4624 86.781 21.058C86.781 20.6535 86.4531 20.3257 86.0487 20.3257C85.6443 20.3257 85.3164 20.6535 85.3164 21.058C85.3164 21.4624 85.6443 21.7903 86.0487 21.7903Z" fill="#B31106"/>
<path d="M82.4086 23.8914C82.8133 23.8914 83.1414 23.5633 83.1414 23.1586C83.1414 22.7539 82.8133 22.4258 82.4086 22.4258C82.0039 22.4258 81.6758 22.7539 81.6758 23.1586C81.6758 23.5633 82.0039 23.8914 82.4086 23.8914Z" fill="#B31106"/>
<path d="M80.5526 24.9812C80.957 24.9812 81.2849 24.6533 81.2849 24.2489C81.2849 23.8445 80.957 23.5166 80.5526 23.5166C80.1482 23.5166 79.8203 23.8445 79.8203 24.2489C79.8203 24.6533 80.1482 24.9812 80.5526 24.9812Z" fill="#B31106"/>
<path d="M76.9573 27.0386C77.3608 27.0386 77.688 26.7114 77.688 26.3079C77.688 25.9043 77.3608 25.5771 76.9573 25.5771C76.5537 25.5771 76.2266 25.9043 76.2266 26.3079C76.2266 26.7114 76.5537 27.0386 76.9573 27.0386Z" fill="#B31106"/>
<path d="M75.0837 28.1463C75.4901 28.1463 75.8197 27.8168 75.8197 27.4103C75.8197 27.0038 75.4901 26.6743 75.0837 26.6743C74.6772 26.6743 74.3477 27.0038 74.3477 27.4103C74.3477 27.8168 74.6772 28.1463 75.0837 28.1463Z" fill="#B41006"/>
<path d="M87.8651 30.3542C88.2695 30.3542 88.5974 30.0264 88.5974 29.6219C88.5974 29.2175 88.2695 28.8896 87.8651 28.8896C87.4607 28.8896 87.1328 29.2175 87.1328 29.6219C87.1328 30.0264 87.4607 30.3542 87.8651 30.3542Z" fill="#B41006"/>
<path d="M86.0448 31.404C86.4492 31.404 86.7771 31.0762 86.7771 30.6717C86.7771 30.2673 86.4492 29.9395 86.0448 29.9395C85.6404 29.9395 85.3125 30.2673 85.3125 30.6717C85.3125 31.0762 85.6404 31.404 86.0448 31.404Z" fill="#B31106"/>
<path d="M84.2273 32.4532C84.6312 32.4532 84.9586 32.1258 84.9586 31.722C84.9586 31.3181 84.6312 30.9907 84.2273 30.9907C83.8235 30.9907 83.4961 31.3181 83.4961 31.722C83.4961 32.1258 83.8235 32.4532 84.2273 32.4532Z" fill="#B31106"/>
<path d="M80.595 34.5534C80.9992 34.5534 81.3268 34.2258 81.3268 33.8216C81.3268 33.4175 80.9992 33.0898 80.595 33.0898C80.1909 33.0898 79.8633 33.4175 79.8633 33.8216C79.8633 34.2258 80.1909 34.5534 80.595 34.5534Z" fill="#B31106"/>
<path d="M89.6815 36.0699C90.0751 36.0699 90.3942 35.7509 90.3942 35.3572C90.3942 34.9636 90.0751 34.6445 89.6815 34.6445C89.2878 34.6445 88.9688 34.9636 88.9688 35.3572C88.9688 35.7509 89.2878 36.0699 89.6815 36.0699Z" fill="#0255A3"/>
<path d="M86.0481 38.1695C86.4414 38.1695 86.7603 37.8506 86.7603 37.4573C86.7603 37.064 86.4414 36.7451 86.0481 36.7451C85.6548 36.7451 85.3359 37.064 85.3359 37.4573C85.3359 37.8506 85.6548 38.1695 86.0481 38.1695Z" fill="#0255A3"/>
<path d="M84.2285 39.2163C84.6201 39.2163 84.9375 38.8989 84.9375 38.5073C84.9375 38.1158 84.6201 37.7983 84.2285 37.7983C83.837 37.7983 83.5195 38.1158 83.5195 38.5073C83.5195 38.8989 83.837 39.2163 84.2285 39.2163Z" fill="#0055A4"/>
<path d="M82.4096 40.2733C82.8041 40.2733 83.1239 39.9535 83.1239 39.559C83.1239 39.1645 82.8041 38.8447 82.4096 38.8447C82.0151 38.8447 81.6953 39.1645 81.6953 39.559C81.6953 39.9535 82.0151 40.2733 82.4096 40.2733Z" fill="#0255A3"/>
<path d="M95.1358 42.5309C95.528 42.5309 95.8459 42.213 95.8459 41.8209C95.8459 41.4287 95.528 41.1108 95.1358 41.1108C94.7437 41.1108 94.4258 41.4287 94.4258 41.8209C94.4258 42.213 94.7437 42.5309 95.1358 42.5309Z" fill="#0055A4"/>
<path d="M93.3194 43.5812C93.7116 43.5812 94.0295 43.2633 94.0295 42.8712C94.0295 42.479 93.7116 42.1611 93.3194 42.1611C92.9273 42.1611 92.6094 42.479 92.6094 42.8712C92.6094 43.2633 92.9273 43.5812 93.3194 43.5812Z" fill="#0255A3"/>
<path d="M89.6845 45.6786C90.0755 45.6786 90.3924 45.3616 90.3924 44.9706C90.3924 44.5796 90.0755 44.2627 89.6845 44.2627C89.2935 44.2627 88.9766 44.5796 88.9766 44.9706C88.9766 45.3616 89.2935 45.6786 89.6845 45.6786Z" fill="#0255A3"/>
<path d="M87.8658 46.7316C88.2576 46.7316 88.5753 46.4139 88.5753 46.022C88.5753 45.6302 88.2576 45.3125 87.8658 45.3125C87.4739 45.3125 87.1562 45.6302 87.1562 46.022C87.1562 46.4139 87.4739 46.7316 87.8658 46.7316Z" fill="#0255A3"/>
<path d="M84.2283 48.8331C84.6219 48.8331 84.941 48.514 84.941 48.1204C84.941 47.7268 84.6219 47.4077 84.2283 47.4077C83.8347 47.4077 83.5156 47.7268 83.5156 48.1204C83.5156 48.514 83.8347 48.8331 84.2283 48.8331Z" fill="#0255A3"/>
<path d="M80.5927 50.9358C80.9869 50.9358 81.3064 50.6163 81.3064 50.2221C81.3064 49.8279 80.9869 49.5083 80.5927 49.5083C80.1985 49.5083 79.8789 49.8279 79.8789 50.2221C79.8789 50.6163 80.1985 50.9358 80.5927 50.9358Z" fill="#0255A3"/>
<path d="M78.7713 51.9845C79.1649 51.9845 79.484 51.6654 79.484 51.2718C79.484 50.8782 79.1649 50.5591 78.7713 50.5591C78.3777 50.5591 78.0586 50.8782 78.0586 51.2718C78.0586 51.6654 78.3777 51.9845 78.7713 51.9845Z" fill="#0255A3"/>
<path d="M76.9556 53.0323C77.3475 53.0323 77.6651 52.7147 77.6651 52.3228C77.6651 51.9309 77.3475 51.6133 76.9556 51.6133C76.5638 51.6133 76.2461 51.9309 76.2461 52.3228C76.2461 52.7147 76.5638 53.0323 76.9556 53.0323Z" fill="#0255A3"/>
<path d="M75.1385 54.0826C75.5321 54.0826 75.8512 53.7635 75.8512 53.3699C75.8512 52.9763 75.5321 52.6572 75.1385 52.6572C74.7449 52.6572 74.4258 52.9763 74.4258 53.3699C74.4258 53.7635 74.7449 54.0826 75.1385 54.0826Z" fill="#0255A3"/>
<path d="M74.8334 68.5852C75.1779 68.8856 75.4199 69.2545 75.5593 69.6919C75.7715 70.3562 75.8043 71.0305 75.6578 71.7146C75.5971 71.9966 75.4963 72.2591 75.3555 72.5019C75.2104 72.7522 75.0316 72.9637 74.8191 73.1363C74.3708 73.4995 73.8365 73.6465 73.2163 73.5773C72.4782 73.4951 71.9439 73.1176 71.6135 72.4447C71.2672 71.7387 71.1606 70.99 71.2937 70.1986C71.3767 69.7058 71.5659 69.2768 71.8613 68.9114C72.0978 68.6188 72.3716 68.4093 72.6826 68.2829C73.007 68.1509 73.3614 68.1022 73.7458 68.1368C74.1722 68.1752 74.5348 68.3247 74.8334 68.5852ZM72.8139 72.5904C72.9099 72.6747 72.9999 72.7301 73.0839 72.7566C73.4443 72.871 73.7695 72.8373 74.0593 72.6555C74.1976 72.569 74.3134 72.4575 74.4066 72.3208C74.4995 72.1853 74.5653 72.0347 74.6041 71.8692C74.6627 71.6193 74.6982 71.367 74.7105 71.1125C74.7247 70.828 74.7188 70.574 74.6931 70.3506C74.6617 70.0738 74.5909 69.805 74.4807 69.5442C74.3752 69.2942 74.2132 69.1153 73.9947 69.0072C73.7991 68.9105 73.5748 68.8779 73.3217 68.9093C72.872 68.9658 72.5731 69.23 72.4252 69.7019C72.2053 70.4051 72.1981 71.1466 72.4035 71.9264C72.4731 72.1908 72.6099 72.4121 72.8139 72.5904Z" fill="#0255A3"/>
<path d="M79.3229 73.2178C78.8869 72.8485 78.6044 72.3835 78.4752 71.8225C78.3477 71.269 78.3331 70.7014 78.4312 70.1197C78.4948 69.7416 78.6201 69.399 78.8072 69.0919C79.2096 68.4318 79.8046 68.1094 80.5921 68.1245C81.1424 68.1348 81.587 68.3254 81.9259 68.6964C82.2327 69.0328 82.4212 69.4545 82.4914 69.9614C82.4924 69.9683 82.4907 69.9753 82.4864 69.9811C82.4822 69.9868 82.4758 69.9907 82.4686 69.9921C82.1975 70.0443 81.924 70.0673 81.6479 70.0609C81.6403 70.0606 81.6329 70.0578 81.627 70.0531C81.6211 70.0483 81.6169 70.0418 81.6151 70.0344C81.5364 69.7125 81.4238 69.4518 81.2773 69.2524C81.1686 69.1048 81.0242 69.0016 80.8442 68.9426C80.6793 68.889 80.5097 68.8803 80.3353 68.9167C80.0303 68.9806 79.8037 69.1669 79.6554 69.4758C79.5615 69.6721 79.496 69.8775 79.459 70.0922C79.3661 70.6287 79.3746 71.1607 79.4844 71.6881C79.5176 71.8483 79.5599 71.9844 79.6115 72.0963C79.674 72.2322 79.7504 72.3543 79.8408 72.4627C79.9781 72.6265 80.1584 72.726 80.3819 72.7613C80.8136 72.8295 81.1484 72.6865 81.3864 72.3325C81.5156 72.1408 81.5906 71.93 81.6114 71.7002C81.6118 71.6955 81.6131 71.6909 81.6154 71.6867C81.6176 71.6825 81.6207 71.6788 81.6244 71.6758C81.6282 71.6728 81.6325 71.6705 81.6372 71.6692C81.6419 71.6678 81.6468 71.6674 81.6516 71.6679L82.4867 71.7685C82.4908 71.769 82.4947 71.7704 82.4983 71.7725C82.5018 71.7746 82.5049 71.7774 82.5072 71.7808C82.5096 71.7842 82.5112 71.788 82.5119 71.792C82.5127 71.796 82.5125 71.8001 82.5115 71.804C82.4702 71.9675 82.4226 72.1288 82.3686 72.288C82.1967 72.7942 81.889 73.1581 81.4457 73.3798C81.212 73.4966 80.9532 73.566 80.6694 73.5879C80.392 73.6094 80.1201 73.5829 79.854 73.5085C79.6676 73.4562 79.4906 73.3593 79.3229 73.2178Z" fill="#0255A3"/>
<path d="M100.355 73.1411C99.9449 72.7736 99.6761 72.3101 99.5487 71.7506C99.447 71.3048 99.4151 70.8722 99.4528 70.4528C99.521 69.696 99.8166 69.0818 100.34 68.6102C100.705 68.2805 101.161 68.116 101.706 68.1167C102.393 68.1174 102.942 68.379 103.351 68.9014C103.619 69.2431 103.796 69.6409 103.883 70.0949C103.985 70.6339 103.979 71.1717 103.863 71.7083C103.772 72.1312 103.589 72.5099 103.316 72.8446C103.036 73.1881 102.68 73.4126 102.248 73.5181C101.778 73.6332 101.321 73.6122 100.876 73.4551C100.688 73.3887 100.514 73.2841 100.355 73.1411ZM101.297 72.7567C101.516 72.8488 101.745 72.8576 101.984 72.7832C102.412 72.6497 102.685 72.3497 102.805 71.883C102.95 71.3186 102.962 70.7054 102.842 70.0435C102.797 69.7989 102.722 69.588 102.617 69.4108C102.412 69.068 102.1 68.8949 101.68 68.8914C101.379 68.8889 101.132 68.9858 100.938 69.1821C100.801 69.3218 100.692 69.5197 100.613 69.7756C100.549 69.9828 100.507 70.2087 100.489 70.4534C100.462 70.8014 100.467 71.1228 100.503 71.4176C100.529 71.6255 100.558 71.7851 100.589 71.8963C100.634 72.0576 100.704 72.2057 100.798 72.3405C100.935 72.5357 101.101 72.6744 101.297 72.7567Z" fill="#0255A3"/>
<path d="M64.9017 70.7632C64.9617 70.7886 65.029 70.8144 65.1034 70.8405C65.3068 70.9118 65.4773 71.022 65.6149 71.1709C65.7424 71.3089 65.8347 71.4817 65.8919 71.6893C65.9822 72.0186 65.9614 72.3383 65.8294 72.6482C65.6691 73.0238 65.4084 73.2762 65.0473 73.4054C64.8765 73.4665 64.5757 73.4998 64.1451 73.5055C63.4415 73.515 62.7297 73.5169 62.0096 73.5113C62.0058 73.5113 62.002 73.5105 61.9984 73.5091C61.9949 73.5076 61.9917 73.5055 61.989 73.5028C61.9863 73.5001 61.9841 73.4969 61.9827 73.4933C61.9812 73.4898 61.9805 73.486 61.9805 73.4822V68.2491C61.9805 68.2432 61.9816 68.2372 61.9839 68.2317C61.9862 68.2262 61.9896 68.2212 61.9938 68.2169C61.998 68.2127 62.0031 68.2094 62.0086 68.2071C62.0141 68.2048 62.02 68.2036 62.026 68.2036C62.6134 68.2036 63.2116 68.2036 63.8205 68.2036C64.0732 68.2036 64.3037 68.216 64.512 68.2407C64.7866 68.2732 65.0053 68.3388 65.168 68.4377C65.4328 68.5983 65.6135 68.839 65.7103 69.1599C65.7738 69.3717 65.7821 69.5953 65.7351 69.8308C65.6451 70.2822 65.3678 70.5812 64.9033 70.7277C64.8708 70.738 64.8703 70.7498 64.9017 70.7632ZM62.9177 70.4307C63.3035 70.4501 63.6892 70.4489 64.0746 70.427C64.2278 70.4185 64.3528 70.3873 64.4495 70.3333C64.739 70.1726 64.8629 69.9252 64.8212 69.5909C64.8 69.419 64.7332 69.2803 64.6205 69.1747C64.4663 69.0307 64.2702 68.9587 64.0323 68.9587C63.6662 68.9583 63.2964 68.9581 62.923 68.9581C62.9153 68.9581 62.9078 68.9613 62.9024 68.9668C62.8969 68.9724 62.8939 68.9799 62.8939 68.9878L62.8907 70.4021C62.8905 70.4094 62.8933 70.4166 62.8983 70.4219C62.9034 70.4273 62.9103 70.4304 62.9177 70.4307ZM64.3764 71.2286C64.2903 71.2007 64.1535 71.1852 63.9661 71.182C63.6127 71.1757 63.2622 71.1799 62.9145 71.1947C62.9079 71.195 62.9018 71.1978 62.8972 71.2026C62.8927 71.2073 62.8901 71.2136 62.8901 71.2202L62.897 72.6885C62.897 72.6919 62.8977 72.6952 62.899 72.6984C62.9003 72.7015 62.9022 72.7044 62.9046 72.7068C62.907 72.7092 62.9099 72.7111 62.913 72.7124C62.9162 72.7137 62.9196 72.7144 62.923 72.7144C63.337 72.7179 63.7509 72.7186 64.1646 72.7165C64.3835 72.7151 64.566 72.6519 64.7121 72.527C64.8466 72.4119 64.9287 72.253 64.9584 72.0504C65.017 71.6473 64.823 71.3734 64.3764 71.2286Z" fill="#0255A3"/>
<path d="M67.8377 70.9062C68.4646 70.0096 69.1187 69.1158 69.8 68.2248C69.8049 68.2182 69.8113 68.2129 69.8187 68.2092C69.826 68.2055 69.8341 68.2036 69.8424 68.2036H70.6927C70.7361 68.2036 70.7452 68.2213 70.7197 68.2566L69.5474 69.9001C69.535 69.9176 69.5272 69.9381 69.5249 69.9596C69.5226 69.9811 69.5258 70.0029 69.5342 70.023L70.9591 73.4636C70.9612 73.4689 70.9621 73.4747 70.9615 73.4804C70.9609 73.4861 70.9589 73.4916 70.9558 73.4963C70.9526 73.5011 70.9482 73.505 70.9432 73.5077C70.9381 73.5104 70.9325 73.5118 70.9268 73.5118H69.9509C69.9423 73.5118 69.9338 73.5093 69.9267 73.5045C69.9195 73.4997 69.9139 73.4928 69.9107 73.4848L68.8236 70.8728C68.8211 70.8669 68.8172 70.8618 68.8121 70.8579C68.8071 70.854 68.8011 70.8515 68.7948 70.8507C68.7885 70.8498 68.782 70.8506 68.7761 70.853C68.7702 70.8554 68.7651 70.8593 68.7611 70.8643C68.4455 71.2756 68.1342 71.6849 67.8271 72.0922C67.7844 72.1487 67.7658 72.2176 67.7715 72.2987C67.7757 72.3605 67.7778 72.3928 67.7778 72.3956C67.7817 72.7557 67.7786 73.1158 67.7683 73.4758C67.768 73.4832 67.765 73.4902 67.7599 73.4953C67.7547 73.5005 67.7479 73.5033 67.7408 73.5034H66.8608C66.8536 73.5034 66.8467 73.5003 66.8417 73.495C66.8366 73.4896 66.8337 73.4823 66.8337 73.4748L66.8242 68.2343C66.8242 68.2303 66.825 68.2263 66.8266 68.2226C66.8281 68.2188 66.8304 68.2155 66.8332 68.2126C66.8361 68.2098 66.8395 68.2075 66.8432 68.206C66.8469 68.2044 66.8509 68.2036 66.8549 68.2036H67.7323C67.7442 68.2036 67.7557 68.2084 67.7641 68.2168C67.7726 68.2252 67.7773 68.2367 67.7773 68.2486V70.8871C67.7773 70.9574 67.7974 70.9637 67.8377 70.9062Z" fill="#0255A3"/>
<path d="M86.384 69.8609C86.3861 69.8218 86.378 69.8195 86.3597 69.8541C86.1475 70.2512 85.911 70.6326 85.6501 70.9983C85.2071 71.6189 84.7629 72.2384 84.3174 72.8568C84.2496 72.9511 84.2096 73.0353 84.1972 73.1094C84.1831 73.197 84.1831 73.2928 84.1972 73.3969C84.2081 73.4735 84.1748 73.5118 84.0971 73.5118H83.278C83.2701 73.5118 83.2626 73.5087 83.257 73.5031C83.2515 73.4976 83.2483 73.49 83.2483 73.4822L83.2383 68.2327C83.2383 68.225 83.2414 68.2176 83.2468 68.2121C83.2523 68.2067 83.2597 68.2036 83.2674 68.2036H84.1617C84.1656 68.2036 84.1695 68.2044 84.1731 68.2059C84.1767 68.2074 84.1799 68.2095 84.1827 68.2123C84.1854 68.2151 84.1876 68.2183 84.1891 68.2219C84.1906 68.2255 84.1914 68.2294 84.1914 68.2333V71.8259C84.1914 71.9067 84.2103 71.9113 84.248 71.8397C84.4341 71.4856 84.6559 71.1282 84.9136 70.7674C85.3838 70.1084 85.8468 69.4651 86.3025 68.8374C86.3434 68.7813 86.3648 68.7079 86.3666 68.6172L86.375 68.2333C86.3752 68.2261 86.3784 68.2192 86.3841 68.2141C86.3897 68.2091 86.3973 68.2063 86.4052 68.2063L87.2794 68.2126C87.2864 68.2126 87.2932 68.2155 87.2981 68.2207C87.3031 68.2258 87.3059 68.2328 87.3059 68.2401L87.3122 73.4822C87.3122 73.4893 87.3094 73.4962 87.3043 73.5013C87.2993 73.5063 87.2924 73.5092 87.2852 73.5092H86.3925C86.3853 73.5092 86.3785 73.5063 86.3734 73.5011C86.3683 73.496 86.3655 73.489 86.3655 73.4817C86.3616 72.4678 86.362 71.4542 86.3666 70.4407C86.3673 70.2388 86.3731 70.0456 86.384 69.8609Z" fill="#0255A3"/>
<path d="M89.2512 68.9606L89.2607 73.4656C89.2607 73.4714 89.2596 73.4772 89.2574 73.4825C89.2552 73.4879 89.252 73.4928 89.248 73.4969C89.244 73.501 89.2392 73.5042 89.2339 73.5064C89.2286 73.5085 89.223 73.5096 89.2173 73.5095L88.5025 73.5027C88.4956 73.5025 88.489 73.4995 88.4841 73.4941C88.4793 73.4888 88.4766 73.4816 88.4766 73.4741L88.4829 68.2458C88.4829 68.2387 88.4857 68.2318 88.4906 68.2267C88.4955 68.2216 88.5023 68.2186 88.5094 68.2183C88.9902 68.195 89.4681 68.193 89.9433 68.2125C89.954 68.2129 89.9643 68.2167 89.9728 68.2232C89.9814 68.2298 89.9877 68.2388 89.9909 68.249L91.088 71.606C91.0955 71.6286 91.1027 71.6286 91.1098 71.606L92.1698 68.2506C92.1741 68.2366 92.1828 68.2245 92.1946 68.2159C92.2063 68.2073 92.2205 68.2028 92.2349 68.2029L93.6461 68.2125C93.6531 68.2125 93.6598 68.2154 93.6648 68.2205C93.6697 68.2257 93.6725 68.2327 93.6725 68.24L93.6852 73.4746C93.6852 73.4819 93.6824 73.4889 93.6773 73.4941C93.6723 73.4992 93.6654 73.5021 93.6582 73.5021L92.7422 73.5106C92.7387 73.5107 92.7353 73.51 92.7321 73.5087C92.7289 73.5074 92.726 73.5054 92.7235 73.5029C92.721 73.5004 92.7191 73.4974 92.7178 73.4941C92.7164 73.4907 92.7157 73.4872 92.7157 73.4836C92.7175 71.9851 92.7154 70.4863 92.7094 68.9871C92.7094 68.9741 92.7067 68.9642 92.7014 68.9575C92.6894 68.9426 92.6795 68.9472 92.6718 68.9712L91.2448 73.4757C91.2422 73.4836 91.2375 73.4906 91.2313 73.4955C91.2251 73.5005 91.2178 73.5032 91.2104 73.5032L90.7968 73.509C90.7823 73.5093 90.7679 73.5045 90.7559 73.4953C90.7438 73.4862 90.7348 73.4731 90.7301 73.4582C90.2529 71.9632 89.7763 70.4718 89.3005 68.9839C89.2938 68.9631 89.2855 68.9488 89.2756 68.941C89.259 68.9283 89.2509 68.9349 89.2512 68.9606ZM90.9276 71.6241C90.9276 71.6216 90.9199 71.6192 90.9051 71.617C90.8903 71.6148 90.8686 71.6129 90.8413 71.6114C90.8139 71.6098 90.7814 71.6087 90.7457 71.6081C90.71 71.6074 90.6717 71.6073 90.633 71.6076C90.555 71.6083 90.4801 71.6109 90.4249 71.615C90.3697 71.619 90.3388 71.6242 90.3388 71.6292C90.3388 71.6317 90.3465 71.6341 90.3613 71.6363C90.3761 71.6385 90.3978 71.6404 90.4251 71.6419C90.4525 71.6435 90.485 71.6446 90.5207 71.6452C90.5564 71.6459 90.5947 71.6461 90.6334 71.6457C90.7114 71.645 90.7863 71.6424 90.8415 71.6383C90.8967 71.6343 90.9276 71.6291 90.9276 71.6241ZM91.6577 71.6369C91.6577 71.6347 91.6523 71.6323 91.6417 71.6299C91.6311 71.6274 91.6156 71.6251 91.5959 71.6228C91.5763 71.6206 91.5529 71.6186 91.5272 71.6169C91.5015 71.6152 91.4739 71.6138 91.446 71.6129C91.3897 71.611 91.3357 71.611 91.2958 71.6129C91.2559 71.6147 91.2334 71.6183 91.2332 71.6228C91.2332 71.625 91.2386 71.6274 91.2492 71.6298C91.2598 71.6322 91.2753 71.6346 91.295 71.6368C91.3147 71.6391 91.338 71.6411 91.3637 71.6428C91.3894 71.6445 91.417 71.6458 91.4449 71.6468C91.5012 71.6486 91.5552 71.6486 91.5951 71.6468C91.635 71.6449 91.6575 71.6414 91.6577 71.6369ZM89.1548 71.6313C89.1549 71.6297 89.1545 71.628 89.1539 71.6265C89.1533 71.6249 89.1523 71.6235 89.1512 71.6223C89.15 71.6211 89.1486 71.6202 89.147 71.6196C89.1455 71.6189 89.1439 71.6186 89.1422 71.6186L88.6169 71.6167C88.6136 71.6167 88.6103 71.6181 88.6079 71.6204C88.6055 71.6228 88.6042 71.626 88.6042 71.6294L88.6042 71.6305C88.6042 71.6321 88.6045 71.6338 88.6051 71.6353C88.6058 71.6369 88.6067 71.6383 88.6079 71.6395C88.609 71.6406 88.6104 71.6416 88.612 71.6422C88.6135 71.6429 88.6152 71.6432 88.6168 71.6432L89.1421 71.645C89.1455 71.6451 89.1487 71.6437 89.1511 71.6414C89.1535 71.639 89.1548 71.6358 89.1548 71.6324L89.1548 71.6313ZM93.5571 71.6291C93.5571 71.6275 93.5568 71.6259 93.5561 71.6245C93.5555 71.623 93.5546 71.6216 93.5535 71.6205C93.5524 71.6194 93.551 71.6185 93.5495 71.6179C93.5481 71.6173 93.5465 71.617 93.5449 71.617L92.8523 71.6194C92.8507 71.6194 92.8491 71.6197 92.8476 71.6203C92.8462 71.621 92.8448 71.6219 92.8437 71.623C92.8426 71.6241 92.8417 71.6255 92.8411 71.6269C92.8405 71.6284 92.8401 71.63 92.8402 71.6316L92.8402 71.6327C92.8402 71.6343 92.8405 71.6359 92.8411 71.6373C92.8417 71.6388 92.8426 71.6401 92.8438 71.6413C92.8449 71.6424 92.8462 71.6433 92.8477 71.6439C92.8492 71.6445 92.8508 71.6448 92.8524 71.6448L93.545 71.6424C93.5466 71.6424 93.5481 71.6421 93.5496 71.6414C93.5511 71.6408 93.5524 71.6399 93.5536 71.6388C93.5547 71.6377 93.5556 71.6363 93.5562 71.6348C93.5568 71.6334 93.5571 71.6318 93.5571 71.6302L93.5571 71.6291Z" fill="#0255A3"/>
<path d="M97.8127 70.7361C97.757 70.7541 97.7577 70.7691 97.8148 70.7811C98.0132 70.8224 98.1894 70.9011 98.3433 71.0172C98.4912 71.1288 98.6084 71.2748 98.6949 71.4551C98.8046 71.6846 98.85 71.9259 98.8309 72.179C98.8129 72.4229 98.7402 72.6486 98.6128 72.8562C98.3915 73.217 98.0496 73.4265 97.5872 73.4847C97.3771 73.5112 97.1256 73.523 96.8326 73.5202C96.2149 73.5142 95.5798 73.5112 94.9275 73.5112C94.9226 73.5112 94.9177 73.5102 94.9131 73.5083C94.9085 73.5065 94.9044 73.5038 94.9009 73.5003C94.8974 73.4969 94.8946 73.4928 94.8928 73.4883C94.8909 73.4838 94.8899 73.479 94.8899 73.4741L94.8867 68.2511C94.8867 68.2386 94.8917 68.2266 94.9006 68.2176C94.9096 68.2087 94.9217 68.2036 94.9344 68.2035C95.5715 68.1985 96.194 68.2001 96.8019 68.2083C97.2792 68.2146 97.6052 68.2464 97.7799 68.3036C98.1463 68.4239 98.4006 68.6615 98.5429 69.0163C98.6763 69.3502 98.6942 69.676 98.5964 69.9937C98.4841 70.3573 98.2229 70.6048 97.8127 70.7361ZM97.333 69.0517C97.2049 68.9882 97.0645 68.9564 96.912 68.9564C96.546 68.9571 96.1865 68.9575 95.8335 68.9575C95.8273 68.9575 95.8213 68.9587 95.8156 68.961C95.81 68.9634 95.8048 68.9668 95.8005 68.9711C95.7962 68.9755 95.7928 68.9806 95.7904 68.9863C95.7881 68.9919 95.7869 68.998 95.7869 69.0041V70.4126C95.7869 70.4197 95.7897 70.4266 95.7946 70.4316C95.7996 70.4367 95.8063 70.4396 95.8133 70.4396C96.1522 70.4445 96.4854 70.4429 96.813 70.4348C97.0615 70.4288 97.2377 70.399 97.3415 70.3453C97.5159 70.2549 97.6332 70.1021 97.6936 69.8868C97.7518 69.6792 97.7344 69.4944 97.6412 69.3324C97.5723 69.2127 97.4696 69.1192 97.333 69.0517ZM97.5797 71.3604C97.4456 71.2548 97.3069 71.1996 97.1636 71.1946C96.7311 71.1798 96.2839 71.1756 95.8218 71.1819C95.8125 71.1821 95.8036 71.1859 95.7971 71.1925C95.7905 71.1991 95.7869 71.2081 95.7869 71.2174L95.79 72.6878C95.79 72.6947 95.7928 72.7014 95.7978 72.7063C95.8027 72.7113 95.8094 72.7141 95.8165 72.7143C96.1854 72.7217 96.5541 72.721 96.9226 72.7122C97.1906 72.7058 97.3814 72.6723 97.495 72.6116C97.7068 72.4975 97.8261 72.2984 97.853 72.0143C97.8787 71.7428 97.7877 71.5249 97.5797 71.3604Z" fill="#0255A3"/>
<path d="M106.219 69.0746C106.207 69.0746 106.199 69.081 106.195 69.0937C105.76 70.5572 105.324 72.0202 104.886 73.4827C104.884 73.4902 104.879 73.4968 104.873 73.5015C104.867 73.5062 104.86 73.5087 104.852 73.5086L104.088 73.5113C104.084 73.5113 104.08 73.5104 104.077 73.5086C104.073 73.5068 104.07 73.5042 104.068 73.5009C104.065 73.4977 104.064 73.4939 104.063 73.4899C104.062 73.4859 104.062 73.4818 104.064 73.4779L105.707 68.2809C105.714 68.2585 105.728 68.239 105.747 68.2251C105.766 68.2112 105.789 68.2036 105.812 68.2036H106.905C106.916 68.2037 106.927 68.2072 106.936 68.2138C106.945 68.2203 106.951 68.2296 106.955 68.2401L108.6 73.4531C108.602 73.4594 108.602 73.4661 108.601 73.4727C108.6 73.4793 108.598 73.4855 108.594 73.4909C108.59 73.4963 108.585 73.5007 108.579 73.5038C108.573 73.5069 108.566 73.5085 108.56 73.5086L107.653 73.5118C107.635 73.5118 107.618 73.5061 107.604 73.4956C107.59 73.4852 107.58 73.4704 107.575 73.4536L106.249 69.1038C106.246 69.0954 106.242 69.088 106.237 69.0827C106.231 69.0774 106.225 69.0746 106.219 69.0746Z" fill="#0255A3"/>
<path d="M62.9176 70.4305C62.9103 70.4303 62.9033 70.4271 62.8983 70.4218C62.8932 70.4164 62.8905 70.4093 62.8906 70.4019L62.8938 68.9877C62.8938 68.9798 62.8969 68.9723 62.9023 68.9667C62.9078 68.9611 62.9152 68.958 62.9229 68.958C63.2964 68.958 63.6662 68.9582 64.0322 68.9585C64.2701 68.9585 64.4662 69.0305 64.6205 69.1746C64.7331 69.2801 64.8 69.4188 64.8212 69.5908C64.8628 69.925 64.7389 70.1725 64.4495 70.3331C64.3528 70.3871 64.2278 70.4184 64.0746 70.4268C63.6891 70.4487 63.3035 70.45 62.9176 70.4305Z" fill="white"/>
<path d="M90.6346 71.6459C90.7972 71.6445 90.9289 71.6348 90.9288 71.6243C90.9287 71.6137 90.7968 71.6064 90.6342 71.6078C90.4716 71.6092 90.3399 71.6189 90.34 71.6294C90.3401 71.6399 90.472 71.6473 90.6346 71.6459Z" fill="#0255A3"/>
<path d="M91.4455 71.6469C91.5627 71.6508 91.6579 71.6463 91.6582 71.637C91.6585 71.6276 91.5638 71.6169 91.4466 71.613C91.3294 71.6091 91.2341 71.6135 91.2338 71.6229C91.2335 71.6322 91.3283 71.643 91.4455 71.6469Z" fill="#0255A3"/>
<path d="M89.1434 71.6191L88.6182 71.6172C88.6112 71.6172 88.6054 71.6229 88.6054 71.6299L88.6054 71.631C88.6054 71.638 88.6111 71.6437 88.6181 71.6437L89.1433 71.6455C89.1504 71.6456 89.1561 71.6399 89.1561 71.6329L89.1561 71.6318C89.1561 71.6248 89.1505 71.6191 89.1434 71.6191Z" fill="#0255A3"/>
<path d="M93.5446 71.6167L92.852 71.6191C92.8453 71.6191 92.8399 71.6246 92.8399 71.6313L92.8399 71.6324C92.8399 71.6391 92.8454 71.6445 92.8521 71.6445L93.5447 71.6421C93.5514 71.6421 93.5568 71.6366 93.5568 71.6299L93.5568 71.6288C93.5568 71.6221 93.5513 71.6167 93.5446 71.6167Z" fill="#0255A3"/>
</g>
<defs>
<clipPath id="clip0_2460_41258">
<rect width="47.9725" height="67.7757" fill="white" transform="translate(61 6)"/>
</clipPath>
</defs>
</svg>
