<svg width="170" height="80" viewBox="0 0 170 80" fill="none" xmlns="http://www.w3.org/2000/svg">
<path d="M93.6207 39.764C94.3341 40.0179 94.9267 40.4109 95.3983 40.943C95.8618 41.463 96.0573 42.0878 95.9848 42.8174C95.88 43.9581 95.366 44.8227 94.443 45.4112C93.8504 45.7861 92.9455 45.9917 91.7282 46.028C88.1649 46.1368 84.6358 46.0844 81.141 45.8707C80.7944 45.8506 80.7259 45.7015 80.9355 45.4233C81.3023 44.9396 81.4615 44.3954 81.4131 43.7908C81.3768 43.3152 81.3587 43.0552 81.3587 43.0108C81.3627 40.7253 81.397 38.4398 81.4615 36.1543C81.4817 35.4489 81.2841 34.8604 80.869 34.3888C80.6634 34.155 80.7158 34.0381 81.0262 34.0381C84.4726 34.0381 87.9089 34.0381 91.3352 34.0381C92.1937 34.0381 92.9576 34.284 93.6267 34.7757C94.2958 35.2675 94.711 35.9024 94.8723 36.6803C95.106 37.809 94.6808 38.7502 93.5965 39.504C93.4352 39.6128 93.4433 39.6995 93.6207 39.764ZM88.4692 35.326C87.4655 35.205 86.3369 35.197 85.0832 35.3018C84.8886 35.3187 84.7083 35.411 84.5807 35.559C84.4531 35.7069 84.3882 35.8988 84.4 36.0938L84.533 38.7179C84.5378 38.7973 84.5707 38.8718 84.6248 38.9259C84.6789 38.98 84.75 39.0094 84.8233 39.0082L89.3338 38.8751C89.516 38.8713 89.7046 38.7847 89.8598 38.6333C90.6741 37.8271 90.8333 37.0492 90.3375 36.2994C89.9788 35.7552 89.356 35.4308 88.4692 35.326ZM85.0953 44.9759C86.4296 45.0525 87.7638 45.0626 89.098 45.0061C90.138 44.9578 90.924 44.6494 91.4561 44.081C92.3187 43.158 92.3671 42.1926 91.6012 41.1848C91.1215 40.5601 90.3919 40.1973 89.4124 40.0965C87.9008 39.9393 86.3872 39.9816 84.8716 40.2235C84.7761 40.2379 84.6891 40.2819 84.6275 40.3467C84.566 40.4116 84.5344 40.4928 84.5391 40.5742L84.7326 44.6615C84.7377 44.743 84.7774 44.82 84.8443 44.878C84.9112 44.936 85.0006 44.9708 85.0953 44.9759Z" fill="#3158AC"/>
<path d="M5 45.9797L5.39301 45.2602C5.52603 45.0183 5.59254 44.843 5.59254 44.7342C5.58448 41.836 5.63486 38.9377 5.7437 36.0395C5.75176 35.8017 5.50386 35.2354 5 34.3405L8.22269 34.2498C8.33717 34.2457 8.4513 34.2697 8.55825 34.3205C8.66521 34.3712 8.76279 34.4477 8.84519 34.5454C8.92758 34.643 8.9931 34.7598 9.03781 34.8887C9.08253 35.0176 9.10554 35.1561 9.10546 35.2958V43.3254C9.10546 43.805 9.2546 43.8574 9.55288 43.4826L16.6815 34.5824C16.7903 34.4453 16.937 34.3352 17.1101 34.2607C17.2833 34.1862 17.4781 34.1494 17.6791 34.1531L20.4484 34.2075C20.475 34.2084 20.5013 34.2141 20.5256 34.2241C20.5499 34.2341 20.5717 34.2482 20.5897 34.2657C20.6077 34.2832 20.6217 34.3036 20.6306 34.3258C20.6396 34.348 20.6434 34.3715 20.6418 34.3949C20.3839 38.0832 20.3496 41.5538 20.5391 44.8067C20.5467 44.9794 20.6208 45.1678 20.7507 45.3448C21.2102 45.9575 20.8192 46.2195 19.5777 46.1309C19.098 46.0946 18.6224 46.1309 18.1508 46.2397C17.4131 46.413 17.0362 45.9737 17.0201 44.9216C16.9838 42.5031 16.9657 39.9374 16.9657 37.2246C16.9657 36.5555 16.7561 36.4829 16.3369 37.007C14.4423 39.3811 12.5478 41.7493 10.6533 44.1114C9.76249 45.2239 8.99058 45.9071 8.33757 46.1611C7.31776 46.5561 6.20523 46.4957 5 45.9797Z" fill="#3158AC"/>
<path d="M26.814 41.7838L26.7898 45.0669C26.7818 45.8771 26.3827 46.2822 25.5927 46.2822H23.156C22.7489 46.2822 22.6602 46.1149 22.89 45.7804C23.2487 45.2684 23.4099 44.686 23.3737 44.033C23.3374 43.4284 23.3192 43.1139 23.3192 43.0898C23.3596 40.7277 23.3777 38.3656 23.3737 36.0035C23.3737 35.5238 23.2648 35.163 23.0472 34.9212C22.6683 34.502 22.767 34.2964 23.3434 34.3044L25.9192 34.3347C26.1511 34.3379 26.3725 34.4291 26.5354 34.5886C26.6984 34.7481 26.7897 34.9632 26.7898 35.1872V39.6796C26.7898 39.7871 26.8319 39.8901 26.9067 39.9661C26.9816 40.0421 27.0831 40.0847 27.1889 40.0847L34.3115 40.0545C34.3886 40.0527 34.4623 40.0192 34.5173 39.9607C34.5724 39.9023 34.6048 39.8234 34.6077 39.7401L34.8073 34.8305C34.8112 34.74 34.8466 34.6542 34.9068 34.5895C34.967 34.5248 35.0478 34.4858 35.1338 34.4798L38.163 34.2924C38.2017 34.2903 38.2405 34.2971 38.2765 34.3123C38.3126 34.3275 38.3452 34.3508 38.3721 34.3806C38.399 34.4104 38.4196 34.446 38.4326 34.485C38.4455 34.524 38.4505 34.5655 38.4472 34.6068C38.2093 38.3474 38.1025 41.3827 38.1267 43.7125C38.1307 44.2809 38.2537 44.9903 38.4955 45.8408C38.5071 45.8835 38.5105 45.9283 38.5054 45.9716C38.5004 46.0149 38.4871 46.0555 38.4665 46.0902C38.4459 46.1249 38.4187 46.1527 38.387 46.1713C38.3553 46.1899 38.32 46.1989 38.2839 46.1976L35.6054 46.1371C35.3494 46.1308 35.1061 46.0146 34.9276 45.8135C34.749 45.6123 34.6494 45.3422 34.6501 45.0609V41.7656C34.65 41.7063 34.6389 41.6477 34.6172 41.593C34.5955 41.5383 34.5638 41.4887 34.5239 41.4471C34.4839 41.4054 34.4366 41.3726 34.3845 41.3505C34.3325 41.3284 34.2768 41.3174 34.2208 41.3182L27.1284 41.4572C27.0455 41.4589 26.9664 41.4938 26.9078 41.5547C26.8491 41.6156 26.8155 41.6977 26.814 41.7838Z" fill="#3158AC"/>
<path d="M44.9772 39.3472C44.9613 39.4379 44.9655 39.531 44.9895 39.6199C45.0134 39.7088 45.0567 39.7913 45.1161 39.8617C45.1755 39.932 45.2496 39.9885 45.3332 40.0271C45.4168 40.0656 45.5079 40.0853 45.6 40.0848H52.3235C52.478 40.0849 52.6263 40.0252 52.7361 39.9188C52.8459 39.8124 52.9084 39.6678 52.91 39.5165L52.9402 34.9455C52.9418 34.7846 53.0056 34.6308 53.1177 34.5176C53.2298 34.4044 53.3811 34.3408 53.5388 34.3408C54.2281 34.3408 54.9174 34.3408 55.6067 34.3408C55.78 34.3408 56.0138 34.3106 56.308 34.2501C56.9731 34.109 57.08 34.3731 56.6285 35.0422C56.5139 35.2119 56.4509 35.401 56.4471 35.5864C56.4108 38.0734 56.4008 40.5605 56.4169 43.0475C56.4169 43.0757 56.4028 43.3196 56.3746 43.7791C56.3383 44.4523 56.4935 45.1275 56.8401 45.8047C56.8609 45.8465 56.8705 45.8929 56.8681 45.9395C56.8658 45.9861 56.8514 46.0313 56.8265 46.0708C56.8016 46.1102 56.767 46.1426 56.726 46.1649C56.6849 46.1871 56.6389 46.1984 56.5922 46.1977L53.9863 46.1191C53.7068 46.1127 53.441 46.0023 53.2455 45.8113C53.05 45.6204 52.9405 45.3641 52.9402 45.0972V41.6932C52.9402 41.6408 52.9299 41.5889 52.9099 41.5404C52.8898 41.492 52.8604 41.448 52.8234 41.411C52.7863 41.3739 52.7423 41.3445 52.6939 41.3245C52.6455 41.3044 52.5936 41.2941 52.5412 41.2941H45.5516C45.421 41.2947 45.2954 41.3516 45.2008 41.453C45.1063 41.5543 45.05 41.6923 45.0437 41.8383L44.8805 45.5749C44.8754 45.6606 44.8399 45.7445 44.7784 45.8157C44.7169 45.8869 44.6324 45.942 44.5358 45.974C44.0965 46.1271 43.643 46.1957 43.1754 46.1795C42.8126 46.1674 42.474 46.1997 42.1596 46.2763C41.1197 46.5222 40.8677 46.1936 41.4038 45.2907C41.5145 45.105 41.5733 44.912 41.5731 44.7345V35.7375C41.5731 35.5884 41.5167 35.405 41.4038 35.1873L41.1439 34.6673C41.1261 34.6331 41.117 34.5952 41.1172 34.5565C41.1174 34.5177 41.1268 34.4791 41.1449 34.4436C41.1629 34.4081 41.1891 34.3766 41.2214 34.3514C41.2537 34.3263 41.2913 34.3082 41.3313 34.2985C42.2141 34.097 43.2782 34.1735 44.5238 34.5283C44.6124 34.5537 44.6922 34.6035 44.7542 34.6718C44.8161 34.7402 44.8578 34.8245 44.8744 34.9152C45.1606 36.5961 45.1949 38.0734 44.9772 39.3472Z" fill="#3158AC"/>
<path d="M117.696 45.2481L123.453 45.2723C123.704 45.2727 123.946 45.1817 124.126 45.0189C124.306 44.856 124.409 44.6344 124.414 44.4016L124.589 35.0298C124.594 34.8503 124.666 34.6797 124.79 34.5544C124.915 34.429 125.081 34.3588 125.254 34.3587L128.181 34.3647C128.219 34.365 128.256 34.3737 128.29 34.3902C128.324 34.4066 128.354 34.4305 128.379 34.4602C128.404 34.49 128.422 34.5249 128.432 34.5626C128.443 34.6004 128.446 34.6401 128.441 34.6792C127.977 38.0409 127.881 41.4168 128.151 44.8067C128.16 44.9041 128.193 44.9958 128.246 45.0708C128.3 45.1458 128.372 45.2011 128.453 45.23C128.715 45.3267 129.09 45.4255 129.578 45.5263C130.053 45.623 130.168 45.7983 129.922 46.0523C129.863 46.1133 129.786 46.162 129.695 46.1953C129.605 46.2286 129.503 46.2458 129.396 46.2458L114.238 46.2397C114.013 46.2398 113.797 46.1534 113.637 45.9993C113.478 45.8453 113.387 45.6361 113.385 45.4174L113.246 35.707C113.242 35.5057 113.184 35.3129 113.077 35.1508C112.565 34.3728 112.775 34.0685 113.706 34.2378C114.089 34.3063 114.395 34.3406 114.625 34.3406C115.044 34.3406 115.488 34.3406 115.955 34.3406C116.161 34.3406 116.358 34.4245 116.505 34.574C116.651 34.7235 116.734 34.9265 116.735 35.1387L116.82 44.444C116.821 44.6568 116.914 44.8605 117.078 45.011C117.243 45.1615 117.465 45.2467 117.696 45.2481Z" fill="#3158AC"/>
<path d="M135.873 43.3372L142.874 34.6063C142.931 34.5344 143.006 34.4755 143.092 34.4337C143.179 34.392 143.276 34.3683 143.376 34.3645C144.146 34.3363 144.918 34.3262 145.692 34.3342C145.837 34.3342 146.075 34.3101 146.406 34.2617C146.966 34.173 147.107 34.4028 146.829 34.951C146.712 35.1807 146.647 35.3923 146.635 35.5858C146.414 38.7501 146.414 41.9143 146.635 45.0786C146.647 45.2479 146.714 45.4272 146.835 45.6167C147.19 46.1891 146.928 46.437 146.049 46.3604C145.396 46.308 144.815 46.2818 144.307 46.2818C143.457 46.2818 143.032 45.8565 143.032 45.006V37.2848C143.032 36.5593 142.804 36.4807 142.348 37.049L135.268 45.9069C135.174 46.024 135.053 46.1184 134.915 46.1833C134.777 46.2481 134.625 46.2818 134.47 46.2818H131.671C131.243 46.2818 131.141 46.0984 131.362 45.7316C131.677 45.2116 131.824 44.5868 131.804 43.8572C131.735 41.5838 131.699 39.3084 131.695 37.0309C131.695 36.9987 131.713 36.7185 131.749 36.1905C131.786 35.6382 131.669 35.1908 131.399 34.8482C131.1 34.4612 131.199 34.2718 131.695 34.2798L134.476 34.3282C134.652 34.3314 134.819 34.3997 134.943 34.5184C135.066 34.6371 135.135 34.7968 135.135 34.9631L135.165 43.0954C135.169 43.8411 135.405 43.9217 135.873 43.3372Z" fill="#3158AC"/>
<path d="M160.536 40.5076C159.589 40.3061 158.64 40.296 157.688 40.4774C157.499 40.5128 157.32 40.6075 157.174 40.7495C155.635 42.2449 154.097 43.7424 152.561 45.2419C151.932 45.8505 151.344 46.2012 150.796 46.2939C150.167 46.4028 149.536 46.3363 148.903 46.0944C148.871 46.0823 148.842 46.0623 148.819 46.0362C148.797 46.0101 148.781 45.9787 148.774 45.945C148.767 45.9112 148.768 45.8762 148.778 45.8432C148.788 45.8101 148.806 45.7801 148.83 45.7558L154.097 40.5741C154.134 40.5373 154.161 40.4921 154.177 40.4426C154.193 40.393 154.197 40.3407 154.188 40.2903C154.179 40.2399 154.157 40.193 154.126 40.1539C154.094 40.1148 154.053 40.0847 154.006 40.0662C152.003 39.256 151.301 38.1133 151.902 36.638C152.301 35.6585 153.047 34.9591 154.139 34.5399C154.957 34.2214 155.826 34.0844 156.745 34.1287C157.575 34.169 158.009 34.1892 158.045 34.1892C160.202 34.1892 162.39 34.1892 164.611 34.1892C165.002 34.1892 165.073 34.3404 164.823 34.6427C164.549 34.9813 164.408 35.4347 164.4 36.0031C164.363 38.3531 164.345 40.7031 164.345 43.0531C164.345 43.0733 164.331 43.3091 164.303 43.7605C164.263 44.3692 164.416 44.9214 164.763 45.4172C165.194 46.038 165.039 46.3201 164.297 46.2637L161.522 46.0581C161.356 46.046 161.202 45.972 161.089 45.851C160.976 45.73 160.912 45.5708 160.911 45.4051L160.832 40.8704C160.833 40.785 160.803 40.7021 160.749 40.6359C160.695 40.5698 160.62 40.5244 160.536 40.5076ZM160.216 35.7008L156.189 35.7068C155.354 35.7109 154.826 36.1462 154.605 37.0128C154.23 38.472 154.857 39.2258 156.485 39.2742C157.694 39.3104 159.023 39.3286 160.47 39.3286C160.522 39.3286 160.574 39.3183 160.622 39.2982C160.671 39.2781 160.715 39.2488 160.752 39.2117C160.789 39.1746 160.818 39.1306 160.838 39.0822C160.858 39.0338 160.869 38.9819 160.869 38.9295V36.3961C160.869 36.2117 160.8 36.0348 160.677 35.9044C160.555 35.774 160.389 35.7008 160.216 35.7008Z" fill="#3158AC"/>
<path d="M106.42 42.6544C104.505 42.4246 102.587 42.4024 100.664 42.5879C100.571 42.5955 100.481 42.6238 100.399 42.6708C100.318 42.7178 100.247 42.7824 100.192 42.86C99.5393 43.7669 98.8803 44.6678 98.2152 45.5627C97.933 45.9416 97.6428 46.1612 97.3445 46.2217C96.9979 46.2983 96.6835 46.2358 96.4013 46.0343C96.335 45.9882 96.2916 45.9149 96.2803 45.8301C96.269 45.7453 96.2907 45.6558 96.3408 45.5808L103.723 34.5765C103.754 34.5309 103.794 34.4933 103.842 34.4669C103.89 34.4405 103.944 34.4261 103.998 34.4249C104.053 34.4237 104.107 34.4358 104.156 34.4601C104.205 34.4844 104.248 34.5202 104.28 34.5644L112.037 45.5989C112.327 46.0141 112.218 46.2116 111.711 46.1915L109.51 46.1068C109.406 46.103 109.308 46.0797 109.222 46.0388C109.136 45.9979 109.065 45.9405 109.014 45.871L106.874 42.9567C106.813 42.8712 106.741 42.8 106.662 42.7478C106.584 42.6956 106.501 42.6637 106.42 42.6544ZM103.24 38.428L101.607 40.7679C101.361 41.1186 101.442 41.294 101.849 41.294H104.999C105.568 41.294 105.678 41.0702 105.332 40.6228L103.615 38.3978C103.593 38.3699 103.565 38.3482 103.532 38.3342C103.499 38.3203 103.463 38.3145 103.427 38.3175C103.39 38.3204 103.354 38.332 103.322 38.3512C103.289 38.3704 103.261 38.3967 103.24 38.428Z" fill="#3158AC"/>
<path d="M67.6375 49.0009C71.6201 49.2514 75.047 46.3017 75.2917 42.4124C75.5363 38.5231 72.5062 35.1671 68.5236 34.9166C64.541 34.666 61.1141 37.6158 60.8694 41.505C60.6248 45.3943 63.6549 48.7503 67.6375 49.0009Z" fill="#3158AC"/>
<path fill-rule="evenodd" clip-rule="evenodd" d="M61.0142 46.7663C61.1931 46.7786 61.3314 46.7178 61.4291 46.5839C60.0022 44.8183 59.2746 42.8876 59.2464 40.7915C59.2182 38.8083 59.8087 36.9561 61.018 35.2349C62.5054 33.1308 64.5349 31.9135 67.1066 31.5829C69.4607 31.2806 71.6071 31.7502 73.546 32.9917C76.162 34.6605 77.5547 37.2725 77.724 40.8278C77.726 40.8837 77.7421 40.9381 77.7707 40.9862C77.7994 41.0342 77.8397 41.0742 77.8879 41.1026C77.9361 41.1309 77.9907 41.1466 78.0466 41.1483C78.1025 41.1499 78.1579 41.1374 78.2077 41.1119C79.155 40.6323 79.7314 39.9833 79.937 39.165C80.0821 38.5926 79.9873 37.8086 79.6528 36.813C78.504 33.3868 76.4099 31.063 73.3706 29.8416C70.5369 28.7049 67.7012 28.719 64.8635 29.8839C61.804 31.1335 59.7563 33.4875 58.7204 36.946C57.6804 40.4166 58.4241 43.6877 60.9515 46.7592C60.9521 46.7593 60.9527 46.7594 60.9533 46.7595C62.4326 48.4403 64.2545 49.579 66.419 50.1755C66.5157 50.2037 66.6024 50.2098 66.679 50.1936C66.8846 50.1493 66.9128 50.0485 66.7636 49.8913C66.7072 49.8309 66.6266 49.7865 66.5218 49.7583C64.5104 49.2182 62.8134 48.1601 61.4308 46.584C61.3328 46.7183 61.1939 46.779 61.0142 46.7663Z" fill="#3158AC"/>
</svg>
