<svg width="170" height="80" viewBox="0 0 170 80" fill="none" xmlns="http://www.w3.org/2000/svg">
<path d="M39.2363 19.0088V27.3605C39.2363 33.2003 37.781 35.4342 37.781 35.4342C35.8066 38.6044 32.8867 39.8557 32.8867 39.8557C32.8867 39.8557 35.8066 41.1071 37.781 44.2773C37.781 44.2773 39.2363 46.5112 39.2363 52.351V60.7027H45.1224H52.6862V19.0088H39.2363Z" fill="#121239"/>
<path d="M29.1217 52.3139C29.1217 52.3139 29.4184 45.0003 23.2913 44.2217C23.2913 44.2217 22.8741 44.1938 22.4199 44.1846C21.9843 44.1753 21.4837 44.166 21.4837 44.166V39.8557V35.5455C21.4837 35.5455 21.9843 35.5362 22.4199 35.5269C22.8741 35.5177 23.2913 35.4898 23.2913 35.4898C29.4184 34.7205 29.1217 27.3976 29.1217 27.3976V19.0088H11V60.6934H26.2111H29.1217V52.3139Z" fill="#121239"/>
<path d="M23.2997 35.4811C23.2997 35.4811 22.8826 35.5089 22.4284 35.5181C21.9927 35.5274 21.4922 35.5367 21.4922 35.5367V39.847V44.1572C21.4922 44.1572 21.9927 44.1665 22.4284 44.1758C22.8826 44.1851 23.2997 44.2129 23.2997 44.2129C29.4268 44.9822 29.1302 52.3051 29.1302 52.3051V60.6939H39.2432V52.3422C39.2432 46.5024 37.7879 44.2685 37.7879 44.2685C35.8135 41.0983 32.8936 39.847 32.8936 39.847C32.8936 39.847 35.8135 38.5956 37.7879 35.4254C37.7879 35.4254 39.2432 33.1915 39.2432 27.3518V19H29.1209V27.3888C29.1209 27.3981 29.4176 34.7117 23.2997 35.4811Z" fill="#F9423A"/>
<path d="M64.0781 24.3574H68.2401V31.3929L74.7194 24.3574H80.2811L72.8934 31.8564L80.9207 43.3227H75.7113L70.0198 34.7207L68.2494 36.5189V43.3227H64.0874V24.3574H64.0781Z" fill="#121239"/>
<path d="M101.713 33.5989C101.713 36.4261 100.749 38.8176 98.812 40.7734C96.8747 42.7293 94.4924 43.7026 91.6653 43.7026C88.8752 43.7026 86.4929 42.72 84.5463 40.7456C82.5905 38.7712 81.6172 36.389 81.6172 33.5989C81.6172 30.8273 82.5997 28.4636 84.5741 26.5171C86.5485 24.5705 88.9215 23.6064 91.6931 23.6064C94.4832 23.6064 96.8561 24.5705 98.8027 26.5078C100.74 28.4358 101.713 30.7995 101.713 33.5989ZM97.7831 33.5711C97.7831 31.8377 97.1898 30.3361 96.0126 29.0661C94.8261 27.8055 93.3801 27.1752 91.656 27.1752C89.9504 27.1752 88.5044 27.8148 87.3179 29.094C86.1221 30.3731 85.5289 31.8748 85.5289 33.5896C85.5289 35.323 86.1221 36.8525 87.2994 38.1595C88.4858 39.4664 89.9319 40.1246 91.656 40.1246C93.445 40.1246 94.9281 39.4664 96.0868 38.1595C97.2176 36.9081 97.7831 35.3786 97.7831 33.5711Z" fill="#121239"/>
<path d="M120.381 29.9471C120.381 31.4024 120.028 32.6537 119.333 33.7104C118.629 34.7672 117.609 35.518 116.265 35.9629C115.533 36.1947 114.671 36.343 113.679 36.3893C113.605 36.3893 110.74 36.3893 109.072 36.3893V43.3229H105.234V23.9775H113.058C114.226 23.9775 115.199 24.0795 115.987 24.2742C117.387 24.6357 118.471 25.3031 119.24 26.2856C120.001 27.2775 120.381 28.4918 120.381 29.9471ZM109.063 27.4443V32.9225H113.058C115.431 32.9225 116.617 32.0141 116.617 30.1973C116.617 28.362 115.468 27.4443 113.16 27.4443H109.063Z" fill="#121239"/>
<path d="M138.844 23.9775L130.724 43.3229H126.729L128.592 38.8828L121.891 23.9775H125.988L130.474 34.3408L134.794 23.9775H138.844Z" fill="#121239"/>
<path d="M158.869 37.2789C158.1 39.2625 156.913 40.8383 155.31 41.9785C153.706 43.1279 151.852 43.7026 149.739 43.7026C146.893 43.7026 144.492 42.7293 142.555 40.7734C140.609 38.8176 139.645 36.4168 139.645 33.5711C139.645 30.781 140.618 28.4173 142.555 26.4892C144.502 24.5612 146.865 23.5972 149.665 23.5972C151.852 23.5972 153.762 24.1719 155.403 25.3213C157.043 26.4707 158.202 28.0743 158.879 30.1321H154.633C153.484 28.1577 151.825 27.1752 149.637 27.1752C147.904 27.1752 146.458 27.7962 145.299 29.0383C144.14 30.2804 143.566 31.7821 143.566 33.5433C143.566 35.2952 144.14 36.8247 145.29 38.1131C146.476 39.4572 147.931 40.1246 149.665 40.1246C151.871 40.1246 153.502 39.1791 154.578 37.2789H158.869Z" fill="#121239"/>
<path d="M64.0781 49.3389H65.3295V51.4523L67.2761 49.3389H68.9446L66.7292 51.5913L69.1392 55.0303H67.5727L65.8671 52.4534L65.3388 52.991V55.0303H64.0874V49.3389H64.0781Z" fill="#121239"/>
<path d="M75.4704 52.1102C75.4704 52.963 75.1831 53.6768 74.5991 54.2607C74.0152 54.8447 73.3014 55.1413 72.4579 55.1413C71.6236 55.1413 70.9099 54.8447 70.3259 54.2515C69.7419 53.6582 69.4453 52.9445 69.4453 52.1102C69.4453 51.276 69.7419 50.5715 70.3352 49.9875C70.9284 49.4036 71.6422 49.1162 72.4672 49.1162C73.3014 49.1162 74.0152 49.4036 74.5991 49.9875C75.1831 50.5622 75.4704 51.276 75.4704 52.1102ZM74.2932 52.101C74.2932 51.5819 74.1171 51.1277 73.7649 50.7476C73.4126 50.3676 72.977 50.1822 72.4579 50.1822C71.9481 50.1822 71.5124 50.3769 71.1602 50.7569C70.7987 51.1369 70.6225 51.5911 70.6225 52.1102C70.6225 52.6293 70.7987 53.0928 71.1509 53.4821C71.5031 53.8714 71.9388 54.0661 72.4579 54.0661C72.9955 54.0661 73.4404 53.8714 73.7927 53.4821C74.1264 53.1021 74.2932 52.6479 74.2932 52.101Z" fill="#121239"/>
<path d="M80.9283 55.0302H79.7789V52.6016H77.6377V55.0302H76.4883V49.2275H77.6377V51.5449H79.7789V49.2275H80.9283V55.0302Z" fill="#121239"/>
<path d="M87.9648 53.2133C87.7331 53.8065 87.3808 54.2793 86.8988 54.6223C86.4168 54.9652 85.8606 55.1413 85.2303 55.1413C84.3775 55.1413 83.6545 54.8447 83.0705 54.2607C82.4866 53.6768 82.1992 52.9538 82.1992 52.101C82.1992 51.2667 82.4866 50.553 83.0705 49.9783C83.6545 49.4036 84.3683 49.1162 85.2025 49.1162C85.8606 49.1162 86.4353 49.2923 86.9266 49.6353C87.4179 49.9783 87.7701 50.4603 87.9741 51.0813H86.7042C86.3612 50.4881 85.8606 50.1915 85.2025 50.1915C84.6834 50.1915 84.2478 50.3769 83.9048 50.7476C83.5618 51.1184 83.3857 51.5726 83.3857 52.101C83.3857 52.6293 83.5618 53.0835 83.9048 53.4728C84.257 53.8714 84.702 54.0754 85.2211 54.0754C85.8792 54.0754 86.3705 53.788 86.6949 53.2226H87.9648V53.2133Z" fill="#121239"/>
<path d="M93.9435 55.0302H92.6828L92.2194 53.7696H90.0688L89.6054 55.0302H88.3633L90.6621 49.2275H91.6539L93.9435 55.0302ZM91.8764 52.787L91.1626 50.655L90.4304 52.787H91.8764Z" fill="#121239"/>
<path d="M99.5141 55.0302H98.3091L96.9094 50.6365L95.5097 55.0302H94.3047L96.2698 49.2275H97.5397L99.5141 55.0302Z" fill="#121239"/>
<path d="M103.231 50.2657H102.072V55.0302H100.923V50.2657H99.7734V49.2275H103.231V50.2657Z" fill="#121239"/>
<path d="M109.025 55.0297H107.876V51.1829L105.308 55.0297H104.316V49.227H105.466V53.0553L108.033 49.2178H109.025V55.0297Z" fill="#121239"/>
<path d="M114.987 55.0302H113.838V52.6016H111.696V55.0302H110.547V49.2275H111.696V51.5449H113.838V49.2275H114.987V55.0302Z" fill="#121239"/>
<path d="M119.536 50.2657H117.645V55.0302H116.496V49.2275H119.536V50.2657Z" fill="#121239"/>
</svg>
