<svg width="171" height="170" viewBox="0 0 171 170" fill="none" xmlns="http://www.w3.org/2000/svg">
<rect x="0.5" width="170" height="170" rx="10" fill="white"/>
<g clip-path="url(#clip0_2460_41338)">
<path d="M43.2208 93.8749L42.6355 91.5338H37.368L36.7827 93.8749H31.1641L36.8998 75.7314H42.9867L48.7224 93.8749H43.2208ZM38.4215 87.4369H41.4649L39.9432 81.8182L38.4215 87.4369Z" fill="#2E66A0"/>
<path d="M87.0006 93.875V85.5641L81.2649 93.875H77.168V75.7314H82.3184V84.0424L88.0541 75.7314H92.151V93.875H87.0006Z" fill="#2E66A0"/>
<path d="M136.164 75.7314V80.7648H131.95V93.875H126.683V80.7648H122.469V75.7314H136.164Z" fill="#2E66A0"/>
<path d="M84.6575 114.128C80.7946 114.128 77.0489 113.426 73.4201 111.904C66.1627 108.861 60.427 103.242 57.5006 95.9846C54.5742 88.7272 54.4572 80.6504 57.5006 73.3929C60.5441 66.1355 66.1627 60.3998 73.4201 57.4734C80.6776 54.43 88.7544 54.43 96.0118 57.4734C103.269 60.5169 109.005 66.1355 111.931 73.3929C118.135 88.376 110.995 105.7 96.0118 111.904C92.266 113.426 88.4032 114.128 84.6575 114.128ZM84.6575 57.8246C81.1458 57.8246 77.7512 58.5269 74.3566 59.9316C67.6844 62.6239 62.534 67.7743 59.8417 74.4464C57.1495 81.1186 57.1495 88.376 59.8417 94.9311C65.4604 108.627 81.2628 115.065 94.8413 109.446C108.537 103.827 114.975 88.0249 109.356 74.4464C106.664 67.7743 101.513 62.6239 94.8413 59.9316C91.5637 58.5269 88.0521 57.8246 84.6575 57.8246Z" fill="#2E66A0"/>
<path d="M101.824 39.6003L94.1172 58.1997L96.6043 59.2303L104.311 40.6309L101.824 39.6003Z" fill="#2E66A0"/>
<path d="M72.586 110.271L64.8789 128.87L67.366 129.901L75.0731 111.301L72.586 110.271Z" fill="#2E66A0"/>
<path d="M96.6163 110.175L94.1289 111.205L101.834 129.807L104.321 128.776L96.6163 110.175Z" fill="#2E66A0"/>
<path d="M67.335 39.4741L64.8477 40.5045L72.5528 59.1058L75.0401 58.0755L67.335 39.4741Z" fill="#2E66A0"/>
<path d="M41.2316 66.7195L38.7734 65.666C43.8068 53.3752 53.4054 43.8937 65.6962 38.7433C88.8731 29.1448 115.679 38.3921 127.97 60.3985L125.628 61.6862C114.04 40.8503 88.639 32.0712 66.6326 41.2015C55.0441 46.0007 46.0309 55.1311 41.2316 66.7195Z" fill="#2E66A0"/>
<path d="M122.586 61.8027L129.258 66.1338L129.726 58.174L122.586 61.8027Z" fill="#2E66A0"/>
<path d="M84.6542 134.377C67.0959 134.377 50.357 125.13 41.3438 108.976L43.6849 107.689C55.2733 128.407 80.5573 137.187 102.564 128.056C114.152 123.257 123.165 114.244 127.965 102.655L130.423 103.709C125.389 116 115.791 125.481 103.5 130.631C97.4133 133.09 90.9752 134.377 84.6542 134.377Z" fill="#2E66A0"/>
<path d="M46.613 107.575L39.9409 103.127L39.4727 111.087L46.613 107.575Z" fill="#2E66A0"/>
</g>
<defs>
<clipPath id="clip0_2460_41338">
<rect width="125.926" height="100" fill="white" transform="translate(22.5 35)"/>
</clipPath>
</defs>
</svg>
