<svg width="237" height="105" viewBox="0 0 237 105" fill="none" xmlns="http://www.w3.org/2000/svg">
<rect width="237" height="105" rx="10" fill="white"/>
<path d="M105.988 38.4596V65.2591H100.538V43.5132H90.7851V65.2591H85.3359V38.4596H105.988Z" fill="#00416C"/>
<path d="M116.582 60.2055H128.23V65.2591H111.133V38.4596H128.033V43.5132H116.582V49.2177H127.046V54.1947H116.582V60.2055Z" fill="#00416C"/>
<path d="M153.669 65.2591H147.391L137.52 52.7016V65.2591H132.07V38.4596H137.52V50.2897L146.996 38.4596H153.275L143.048 51.4765L153.669 65.2591Z" fill="#00416C"/>
<path d="M174.648 38.4596V43.5132H167.185V65.2591H161.736V43.5132H154.312V38.4596H174.648Z" fill="#00416C"/>
<path d="M187.997 38.4596C190.656 38.4596 192.894 39.3274 194.71 41.063C196.527 42.7985 197.435 44.9297 197.435 47.4565C197.435 49.9834 196.527 52.1145 194.71 53.8501C192.894 55.5857 190.656 56.4535 187.997 56.4535H183.141V65.2591H177.691V38.4596H187.997ZM187.997 51.5148C189.156 51.5148 190.117 51.1319 190.88 50.3662C191.643 49.575 192.025 48.6051 192.025 47.4565C192.025 46.2824 191.643 45.3126 190.88 44.5469C190.117 43.7812 189.156 43.3983 187.997 43.3983H183.141V51.5148H187.997Z" fill="#00416C"/>
<path d="M86.7272 33.441L86.724 33.4425L81.602 30.0429L82.1459 23.9613C79.9278 23.0483 77.6087 22.3901 75.2353 22L72.3785 27.4304L66.1903 27.6322L62.9727 22.3949C60.699 22.9169 58.4931 23.6894 56.3975 24.6977L57.3185 30.7467L52.4048 34.423L46.6596 31.9998C45.0756 33.7739 43.7089 35.7227 42.587 37.8066L46.9706 42.166L45.212 47.9746L39.1215 49.3234C38.908 51.6678 38.9761 54.0286 39.3243 56.3575L45.4797 57.3657L47.5619 63.0743L43.4466 67.6715C44.0914 68.7247 44.8 69.7394 45.5686 70.7097C46.2797 71.5915 47.0366 72.4366 47.8362 73.2429L53.428 70.5129L58.5374 73.9277L57.9656 80.0168C60.1879 80.9355 62.5111 81.6007 64.8891 82.0001L67.7682 76.5757L73.9566 76.3924L77.1606 81.6476C79.5057 81.1146 81.78 80.3187 83.9385 79.2757L82.9955 73.226L87.7505 69.6354L84.397 66.2742C83.3845 67.2419 82.2693 68.1063 81.0681 68.8517C78.8041 70.2569 76.279 71.2118 73.6372 71.6618C70.9955 72.1122 68.2888 72.049 65.672 71.4761C63.054 70.9076 60.5763 69.8407 58.3804 68.3357C56.1845 66.8306 54.3137 64.9172 52.8748 62.7047C51.436 60.4923 50.4573 58.0243 49.9948 55.4419C49.5323 52.8594 49.595 50.2132 50.1794 47.6544C51.3662 42.491 54.6002 37.9988 59.1714 35.1641C63.7426 32.3292 69.2775 31.3834 74.5613 32.5342L74.5749 32.5159C77.1923 33.086 79.6692 34.1549 81.8638 35.6615C82.4564 36.0683 83.0252 36.5048 83.5682 36.9689L86.7272 33.441Z" fill="#00416C"/>
<path d="M82.8817 64.757C79.6169 67.8144 75.1876 69.693 70.3096 69.693C60.2708 69.693 52.1328 61.7369 52.1328 51.9228C52.1328 42.1085 60.2708 34.1525 70.3096 34.1525C74.8594 34.1525 79.0187 35.7867 82.2069 38.4874L78.1091 43.0638C75.9977 41.2488 73.2252 40.1477 70.1887 40.1477C63.5725 40.1477 58.2091 45.3754 58.2091 51.8241C58.2091 58.2729 63.5725 63.5006 70.1887 63.5006C73.3824 63.5006 76.2842 62.2825 78.4317 60.2969L82.8817 64.757Z" fill="#006DB5"/>
</svg>
