<svg width="125" height="126" viewBox="0 0 125 126" fill="none" xmlns="http://www.w3.org/2000/svg">
<path d="M59.6205 56.5527C59.0481 59.7266 57.7565 63.2013 54.4322 65.9663C52.651 65.5003 49.8963 64.7547 48.2497 65.4382C46.6031 66.1217 46.6963 69.5702 46.4789 69.6945C46.2614 69.8187 28.0879 67.8369 26.6576 68.8245C25.3528 69.7255 21.5625 82.3701 21.5625 83.8303C21.8831 85.0168 23.3023 85.218 23.8615 85.2594C23.8305 85.6944 23.8615 86.6761 24.2343 87.1235C24.7004 87.6827 95.2864 100.389 96.3427 100.017C97.5543 99.589 97.4922 98.7117 97.5543 98.3389C98.7038 98.6807 99.7912 98.5849 100.164 97.438C100.402 92.5189 101.189 83.4885 100.661 82.3701C99.7962 80.5386 87.9026 77.5753 81.9583 76.0633C82.3622 74.9552 82.9276 72.882 81.9583 71.4653C80.989 70.0486 77.5674 69.7048 75.9933 69.6945C74.7506 67.0847 73.1075 64.91 74.0981 58.6032C75.5572 49.314 91.0301 33.314 93.4223 24.5219C95.8145 15.7297 90.2223 3.27259 77.5156 1.00353C63.7526 -1.45414 55.2396 8.18021 53.9973 15.5744C52.0711 27.0383 62.0749 42.9451 59.6205 56.5527Z" fill="#2E81CC" stroke="#2E81CC" stroke-width="0.0621356"/>
<path d="M97.4292 115.83C97.4292 116.373 96.9905 117.289 95.1877 118.421C93.464 119.503 90.8666 120.535 87.5188 121.425C80.8461 123.197 71.5418 124.312 61.2042 124.312C50.8666 124.312 41.5623 123.197 34.8896 121.425C31.5418 120.535 28.9444 119.503 27.2207 118.421C25.4179 117.289 24.9792 116.373 24.9792 115.83C24.9792 115.287 25.4179 114.372 27.2207 113.24C28.9444 112.157 31.5418 111.125 34.8896 110.236C41.5623 108.463 50.8666 107.349 61.2042 107.349C71.5418 107.349 80.8461 108.463 87.5188 110.236C90.8666 111.125 93.464 112.157 95.1877 113.24C96.9905 114.372 97.4292 115.287 97.4292 115.83Z" stroke="#2E81CC" stroke-width="3.10678"/>
<path d="M76.4126 115.799C76.4126 115.936 76.2837 116.276 75.5074 116.735C74.7801 117.165 73.6789 117.577 72.254 117.934C69.4156 118.643 65.4556 119.09 61.0544 119.09C56.6532 119.09 52.6932 118.643 49.8547 117.934C48.4299 117.577 47.3287 117.165 46.6014 116.735C45.8251 116.276 45.6962 115.936 45.6962 115.799C45.6962 115.662 45.8251 115.322 46.6014 114.863C47.3287 114.433 48.4299 114.02 49.8547 113.664C52.6932 112.954 56.6532 112.508 61.0544 112.508C65.4556 112.508 69.4156 112.954 72.254 113.664C73.6789 114.02 74.7801 114.433 75.5074 114.863C76.2837 115.322 76.4126 115.662 76.4126 115.799Z" fill="#2E81CC" stroke="#2E81CC" stroke-width="1.46269"/>
</svg>
