<svg width="126" height="125" viewBox="0 0 126 125" fill="none" xmlns="http://www.w3.org/2000/svg">
<g clip-path="url(#clip0_2460_40534)">
<path d="M57.1665 1.0144C51.7192 1.81548 44.6376 4.73143 40.504 7.83964C32.7174 13.7677 27.943 21.2979 25.2834 31.9363C24.9629 33.218 24.3541 34.0511 22.5917 35.4931L21.7266 36.198L21.8227 44.6895L21.9188 53.2131L22.784 54.0462C23.3928 54.6871 24.1298 54.9754 25.4436 55.1677C26.4369 55.2959 27.4303 55.5843 27.6866 55.7765C27.943 56.0008 28.8081 57.4428 29.6092 59.045C31.5959 62.9863 32.6213 64.4282 36.0179 67.953C38.5493 70.5806 38.9979 71.1894 39.1902 72.407C39.4786 74.2656 40.9846 75.8036 42.8111 76.1241C44.8619 76.4445 46.9127 75.4191 47.7137 73.6567C48.4828 71.9584 48.5148 71.2214 47.8419 69.5552C47.0408 67.5685 45.9193 66.9597 43.3238 67.0238C42.1382 67.0878 40.8244 66.9276 40.4719 66.7354C39.2863 66.0945 35.7616 62.025 34.3837 59.7179C33.6467 58.5002 32.5893 56.4815 32.0445 55.2318L31.0512 52.9567L31.2755 46.1315C31.4998 37.8643 31.3716 36.7107 29.9297 34.7881L28.8402 33.3782L29.449 30.975C33.0379 16.972 44.3171 6.68607 58.224 4.82756C64.2481 3.99443 71.1375 5.14799 76.8412 7.87168C85.8133 12.1975 91.8054 19.215 95.138 29.2767C96.3236 32.8976 96.2595 33.8268 94.8175 35.4931L93.8562 36.5826V44.4973C93.8562 52.9888 93.9523 53.4053 95.5225 54.5909C96.7401 55.5202 99.7842 55.7124 101.322 54.9754C103.309 54.0462 103.469 53.3092 103.469 44.5613C103.469 35.8776 103.405 35.5251 101.258 34.1793C100.201 33.5064 100.009 33.218 99.8483 31.8401C99.4318 28.1872 96.7722 21.6503 94.1126 17.6129C88.1845 8.76889 78.6997 2.71269 68.2215 1.11053C64.889 0.629875 60.1786 0.565788 57.1665 1.0144Z" fill="#2E81CC"/>
<path d="M57.0039 9.44167C46.4936 11.6527 38.1623 19.7276 35.1503 30.6223C34.5414 32.8333 34.4453 33.9869 34.4453 38.7934C34.4453 43.9524 34.5414 44.6253 35.3105 47.2208C37.906 55.6803 43.2252 62.0249 50.6913 65.5496C54.6647 67.4402 57.5165 68.049 62.6114 68.0811C67.5461 68.0811 70.0775 67.5684 74.115 65.7419C91.7709 57.731 96.4813 32.8013 83.1192 17.9973C79.8828 14.4404 74.2111 11.0118 69.5008 9.79415C66.681 9.05715 59.7596 8.86489 57.0039 9.44167Z" fill="#2E81CC"/>
<path d="M76.0708 69.8436C75.5581 70.164 72.4499 72.5352 69.2135 75.1307C65.9771 77.6942 63.0612 79.809 62.7407 79.809C62.4203 79.809 61.6833 79.3925 61.1065 78.8798C58.2867 76.4765 52.3907 72.1186 52.1984 72.3429C52.0703 72.4711 51.7498 73.2722 51.4294 74.0733C50.2118 77.3737 47.0715 79.6168 43.5467 79.6168C41.0473 79.6168 39.4131 78.6875 37.811 76.3163C35.8563 73.4324 34.9591 73.3683 30.441 75.6114C18.8092 81.4753 11.0547 89.4861 7.69019 99.1312C6.72889 101.951 6.56867 102.816 6.56867 105.476C6.53663 108.36 6.60071 108.616 7.46589 109.898C8.77966 111.788 11.215 113.455 16.3739 116.018C28.7427 122.138 46.9113 125.375 66.1373 124.894C86.3887 124.349 101.738 120.793 113.401 113.935C117.823 111.34 119.137 109.481 119.169 105.892C119.169 103.489 117.984 98.6505 116.67 95.7346C112.6 86.7945 103.083 78.5914 90.6505 73.3042C86.2926 71.4457 79.4353 69.2347 78.0895 69.2347C77.5127 69.2347 76.6155 69.4911 76.0708 69.8436ZM69.1174 105.924C68.3804 107.366 63.0291 115.698 62.8368 115.698C62.3242 115.698 56.6845 106.149 56.6845 105.316C56.6845 104.579 62.0678 83.3338 62.6446 81.7316C62.7407 81.4753 64.3108 86.6663 66.1373 93.2673C68.7008 102.656 69.3737 105.412 69.1174 105.924ZM96.4824 97.9135C96.7388 98.4583 96.7388 99.0992 96.5465 99.9323L96.2581 101.118L88.7599 101.214C83.5048 101.278 81.1336 101.182 80.8452 100.926C80.3005 100.477 80.2685 98.0097 80.7811 97.497C81.0695 97.2086 83.2485 97.1125 88.6318 97.1125H96.0979L96.4824 97.9135Z" fill="#2E81CC"/>
</g>
<defs>
<clipPath id="clip0_2460_40534">
<rect width="124.328" height="124.328" fill="white" transform="translate(0.710938 0.612305)"/>
</clipPath>
</defs>
</svg>
