<svg width="125" height="125" viewBox="0 0 125 125" fill="none" xmlns="http://www.w3.org/2000/svg">
<g clip-path="url(#clip0_2460_40558)">
<path d="M30.4411 4.92076C27.9818 5.70776 27.5392 6.07701 14.6265 18.94C2.62384 30.8942 1.83684 31.7297 0.97649 33.4516L0.0664062 35.2967V77.4029C0.0664062 119.362 0.0664063 119.534 0.558746 120.198C0.829782 120.567 1.44396 121.058 1.91144 121.304C2.7233 121.747 4.37065 121.772 44.8296 121.772C84.3784 121.772 86.9359 121.747 87.7477 121.329C88.2152 121.108 88.8542 120.542 89.1501 120.075L89.7158 119.239V105.638V92.0364L84.8708 95.3074L79.9996 98.6034L79.8765 102.515C79.7285 106.819 79.5818 107.335 78.0812 108.245C77.319 108.713 76.5805 108.737 44.8283 108.737C13.0761 108.737 12.3389 108.713 11.5755 108.245C11.1329 107.999 10.592 107.483 10.3459 107.089C9.92813 106.45 9.90326 104.753 9.82991 73.1235C9.80504 51.529 9.85477 39.5027 10.0263 38.9121C10.1494 38.4198 10.6169 37.6825 11.0098 37.2884L11.7719 36.5511L19.9863 36.428C31.2019 36.2565 30.4398 36.944 30.4398 26.8361C30.4398 20.565 30.4647 20.0229 30.9322 19.2856C31.1783 18.843 31.6943 18.3022 32.0884 18.056C32.7275 17.6383 33.9819 17.6134 54.9126 17.6134C79.1144 17.6134 78.1309 17.5637 79.2126 19.0643L79.7534 19.8265L79.8765 46.4141L79.9996 73.0017L84.8695 68.8205L89.7146 64.663V36.0103C89.7146 4.25809 89.8128 6.24982 88.1157 5.19303C87.3287 4.70069 86.9843 4.7007 59.192 4.72556C43.7231 4.72432 30.7854 4.82254 30.4411 4.92076Z" fill="#2E81CC"/>
<path d="M23.8017 43.2149C20.7022 44.3214 20.5058 48.5772 23.4822 50.1263C24.0479 50.421 27.7616 50.4707 46.4295 50.4707C68.0974 50.4707 68.7377 50.4458 69.6478 49.9784C70.3117 49.6588 70.7792 49.1665 71.1484 48.3795C72.0834 46.4363 71.5177 44.5676 69.6478 43.4611C68.8359 42.9687 68.32 42.9687 46.7987 42.9202C28.2539 42.8718 24.6384 42.9202 23.8017 43.2149Z" fill="#2E81CC"/>
<path d="M114.559 52.0447C111.927 53.0779 104.524 57.8496 104.205 58.7099C104.057 59.0295 112.862 70.3931 113.256 70.3931C113.625 70.3931 118.618 65.9172 120.315 64.0473C122.627 61.5384 123.34 60.1857 123.488 58.046C123.683 55.1691 122.602 53.2009 120.289 52.1926C118.371 51.3559 116.379 51.3074 114.559 52.0447Z" fill="#2E81CC"/>
<path d="M23.0891 57.8244C21.9826 58.5617 21.3672 59.7179 21.3672 61.0955C21.3672 62.4233 21.8832 63.2849 23.1874 64.1701L23.9992 64.7358H46.4057C67.631 64.7358 68.8606 64.711 69.6725 64.2932C70.6559 63.776 71.6406 62.1038 71.6406 60.9239C71.6406 59.8908 70.8785 58.5629 69.9186 57.899L69.1068 57.3582H46.4542C24.5898 57.357 23.7779 57.3818 23.0891 57.8244Z" fill="#2E81CC"/>
<path d="M96.4552 64.6861C75.5009 81.4854 61.3586 95.7993 61.3089 100.202C61.284 102.465 63.0557 103.128 66.2521 102.095C73.7044 99.6846 88.4621 90.0429 106.982 75.484C109.048 73.8603 110.696 72.4591 110.622 72.3845C110.303 71.8437 101.571 60.9227 101.448 60.8742C101.35 60.8257 99.1121 62.5464 96.4552 64.6861Z" fill="#2E81CC"/>
<path d="M108.656 76.3196C102.851 80.9185 97.9809 84.9032 97.8578 85.1494C97.3903 86.1577 99.0625 88.3707 100.244 88.3222C100.908 88.3222 121.887 71.6722 122.01 71.0816C122.206 70.0484 120.486 67.9336 119.476 67.9336C119.354 67.9336 114.484 71.7207 108.656 76.3196Z" fill="#2E81CC"/>
<path d="M23.309 72.015C21.0213 73.1712 20.6533 76.1713 22.5717 78.0163L23.4569 78.8767L46.2314 78.95L68.9822 78.9998L69.8426 78.4826C70.8011 77.892 71.613 76.3677 71.6379 75.1866C71.6379 74.1534 70.8757 72.8256 69.9159 72.1617L69.104 71.6209H46.577C26.7529 71.6221 23.9492 71.6718 23.309 72.015Z" fill="#2E81CC"/>
<path d="M23.1874 86.4286C21.8844 87.3386 21.3672 88.199 21.3672 89.5268C21.3672 90.9293 22.056 92.1837 23.1376 92.8228C23.8264 93.2405 24.8844 93.2654 35.8042 93.2654H47.7086L48.5454 92.6997C50.9064 91.1257 50.685 87.4854 48.1761 86.2806C47.4388 85.9362 45.9382 85.8865 35.6575 85.8865H23.9992L23.1874 86.4286Z" fill="#2E81CC"/>
</g>
<defs>
<clipPath id="clip0_2460_40558">
<rect width="124.328" height="124.328" fill="white" transform="translate(0.425781 0.612305)"/>
</clipPath>
</defs>
</svg>
