<svg width="125" height="125" viewBox="0 0 125 125" fill="none" xmlns="http://www.w3.org/2000/svg">
<g clip-path="url(#clip0_2460_40546)">
<path d="M31.0999 25.6966L0.0906891 48.8139V85.8938L0.0664062 122.998H62.2306H124.395L124.37 85.8938V48.8139L93.4583 25.7694C76.4603 13.0695 62.4491 2.67641 62.3277 2.62784C62.2063 2.60355 48.1465 12.9723 31.0999 25.6966ZM67.8885 26.3765C74.5663 27.7363 78.84 31.6702 80.4427 37.9109C81.5597 42.2332 80.6127 46.9441 77.9173 50.7322C75.4405 54.2047 72.2594 56.0744 68.3256 56.3901C66.043 56.5601 64.8774 56.1473 64.1489 54.9089L63.6633 54.059L62.5705 54.8846C59.0009 57.6285 53.6587 56.5844 51.4247 52.7234C49.8463 49.9794 49.8949 45.4143 51.5461 41.7233C53.5859 37.2309 56.7912 34.657 60.6765 34.4141C62.9105 34.2684 64.3189 34.7541 65.703 36.1382C66.6743 37.1095 67.0629 37.0852 67.0871 36.0168C67.0871 34.9241 67.2571 34.8512 69.904 34.8512C71.3124 34.8512 72.4294 34.9483 72.4294 35.0698C72.4294 35.1912 71.7737 38.3965 70.9724 42.1846C70.1468 45.9728 69.4426 49.7852 69.3454 50.6594C69.224 52.1649 69.2483 52.2863 69.734 52.4563C70.9724 52.8448 73.7892 50.8051 75.3676 48.3768C78.5972 43.3988 77.9902 36.9638 73.9106 33.0786C71.0938 30.3832 67.8156 29.3876 62.4734 29.5818C58.7338 29.7275 56.9612 30.1646 54.1687 31.5973C49.4578 34.0742 46.3738 39.465 46.0339 45.8028C45.7911 50.5137 47.1023 54.2289 50.1134 57.2643C51.9589 59.1098 54.0472 60.2511 57.2526 61.1253C58.9038 61.5624 59.8266 61.6352 63.5661 61.6352C67.2814 61.6352 68.2284 61.5624 69.8797 61.1253C72.6722 60.3725 75.0519 59.1098 76.6546 57.5557L78.063 56.2201H80.0056H81.924L81.3898 57.1915C79.4714 60.5911 75.3676 63.4322 70.7053 64.5735C66.7715 65.5448 60.8464 65.5448 56.7426 64.5977C47.6123 62.4851 42.5614 56.0744 42.5372 46.5798C42.5129 39.465 45.9125 32.69 51.1819 29.3147C55.8927 26.3036 62.1334 25.1866 67.8885 26.3765ZM41.5416 75.5979C46.2281 78.7304 50.0648 81.3286 50.0406 81.3529C49.1907 81.9843 6.42852 115.058 5.72432 115.64L4.68015 116.466V83.6841V50.8779L18.8371 60.3725C26.6076 65.5933 36.8307 72.4411 41.5416 75.5979ZM119.732 100.002L119.66 116.345L104.483 104.592C96.1295 98.1324 85.9549 90.2647 81.8511 87.0837L74.4206 81.3044L97.0279 66.1276L119.66 50.9508L119.732 67.3174C119.757 76.3021 119.757 91.0175 119.732 100.002ZM89.2331 98.2295L116.041 118.991L89.136 119.064C74.3477 119.089 50.1134 119.089 35.3251 119.064L8.41971 118.991L35.2523 98.1809C50.0163 86.7437 62.182 77.3948 62.2548 77.4191C62.352 77.4434 74.4934 86.8166 89.2331 98.2295Z" fill="#2E81CC"/>
<path d="M59.5591 38.4206C57.1065 39.7076 55.6981 42.7187 55.4796 47.1382C55.3582 50.0764 55.8195 51.5091 57.1794 52.3347C58.1264 52.8932 59.9233 52.9903 61.0889 52.5047C63.4443 51.5091 65.6298 46.8225 65.6298 42.743C65.6055 39.7562 64.3428 38.0321 62.0117 37.8378C61.1132 37.7407 60.6275 37.8621 59.5591 38.4206Z" fill="#2E81CC"/>
</g>
<defs>
<clipPath id="clip0_2460_40546">
<rect width="124.328" height="124.328" fill="white" transform="translate(0.0664062 0.612305)"/>
</clipPath>
</defs>
</svg>
